<svg xmlns="http://www.w3.org/2000/svg" xmlns:xlink="http://www.w3.org/1999/xlink" width="500" zoomAndPan="magnify" viewBox="0 0 375 374.999991" height="500" preserveAspectRatio="xMidYMid meet" version="1.0"><defs><g/><clipPath id="9f3a88d787"><path d="M 82 131.648438 L 171 131.648438 L 171 220 L 82 220 Z M 82 131.648438 " clip-rule="nonzero"/></clipPath><clipPath id="2f487a4732"><path d="M 80.222656 202.824219 L 172.433594 202.824219 L 172.433594 209.238281 L 80.222656 209.238281 Z M 80.222656 202.824219 " clip-rule="nonzero"/></clipPath><clipPath id="58c35cb450"><path d="M 92.84375 203.652344 L 160.089844 203.652344 L 160.089844 223.109375 L 92.84375 223.109375 Z M 92.84375 203.652344 " clip-rule="nonzero"/></clipPath><clipPath id="d05f6f8245"><path d="M 203.816406 99.164062 L 260.066406 99.164062 L 260.066406 131.414062 L 203.816406 131.414062 Z M 203.816406 99.164062 " clip-rule="nonzero"/></clipPath></defs><g clip-path="url(#9f3a88d787)"><path fill="#ffde32" d="M 170.910156 175.667969 C 170.910156 199.980469 151.203125 219.6875 126.890625 219.6875 C 102.582031 219.6875 82.871094 199.980469 82.871094 175.667969 C 82.871094 151.355469 102.582031 131.648438 126.890625 131.648438 C 151.203125 131.648438 170.910156 151.355469 170.910156 175.667969 " fill-opacity="1" fill-rule="nonzero"/></g><path fill="#000000" d="M 118.984375 162.003906 C 118.90625 162.003906 118.828125 162.007812 118.75 162.015625 C 119.398438 162.097656 119.898438 162.652344 119.898438 163.320312 C 119.898438 163.992188 119.398438 164.542969 118.746094 164.625 C 118.824219 164.632812 118.902344 164.636719 118.984375 164.636719 C 119.710938 164.636719 120.296875 164.046875 120.296875 163.320312 C 120.296875 162.59375 119.710938 162.003906 118.984375 162.003906 " fill-opacity="1" fill-rule="nonzero"/><path fill="#000000" d="M 117.195312 162.546875 C 117.195312 162.546875 117.976562 161.964844 118.875 162.214844 C 118.875 162.214844 119.191406 162.363281 119.40625 162.679688 C 119.40625 162.679688 118.46875 162.03125 117.195312 162.546875 Z M 117.21875 163.902344 C 116.953125 163.902344 116.734375 163.636719 116.734375 163.304688 C 116.734375 162.972656 116.953125 162.703125 117.21875 162.703125 C 117.484375 162.703125 117.703125 162.972656 117.703125 163.304688 C 117.703125 163.636719 117.484375 163.902344 117.21875 163.902344 Z M 118.417969 162.003906 C 117.402344 162.003906 116.585938 162.59375 116.585938 163.320312 C 116.585938 164.046875 117.367188 164.636719 118.417969 164.636719 C 119.144531 164.636719 119.734375 164.046875 119.734375 163.320312 C 119.734375 162.59375 119.144531 162.003906 118.417969 162.003906 " fill-opacity="1" fill-rule="nonzero"/><path fill="#000000" d="M 117.320312 163.304688 C 117.320312 163.5 117.210938 163.660156 117.074219 163.660156 C 116.9375 163.660156 116.828125 163.5 116.828125 163.304688 C 116.828125 163.105469 116.9375 162.949219 117.074219 162.949219 C 117.210938 162.949219 117.320312 163.105469 117.320312 163.304688 " fill-opacity="1" fill-rule="nonzero"/><path fill="#000000" d="M 120.320312 164.070312 L 132.859375 167.351562 L 122.484375 165.902344 C 122.484375 165.902344 120.5 165.671875 120.046875 164.546875 L 120.320312 164.070312 " fill-opacity="1" fill-rule="nonzero"/><path fill="#000000" d="M 115.777344 149.144531 L 115.820312 149.097656 C 115.824219 149.089844 115.851562 149.0625 115.898438 149.035156 C 115.933594 149.019531 115.980469 148.996094 116.046875 149 C 116.117188 149.003906 116.1875 149.054688 116.21875 149.117188 C 116.234375 149.144531 116.234375 149.148438 116.246094 149.175781 C 116.253906 149.199219 116.265625 149.230469 116.28125 149.273438 C 116.3125 149.355469 116.355469 149.46875 116.40625 149.613281 C 116.511719 149.898438 116.65625 150.300781 116.828125 150.777344 C 117.171875 151.738281 117.621094 153 118.066406 154.261719 C 118.960938 156.78125 119.847656 159.285156 119.847656 159.285156 C 119.863281 159.328125 119.988281 159.671875 120 160.179688 C 120.015625 160.710938 119.902344 161.425781 119.398438 162.136719 L 119.195312 161.992188 C 120.066406 160.757812 119.667969 159.523438 119.617188 159.386719 C 119.613281 159.375 119.613281 159.371094 119.613281 159.371094 C 119.609375 159.367188 119.445312 158.898438 119.183594 158.15625 C 118.921875 157.417969 118.5625 156.410156 118.183594 155.335938 C 117.421875 153.1875 116.566406 150.78125 116.191406 149.746094 C 116.15625 149.652344 116.125 149.574219 116.101562 149.503906 L 118.566406 162.074219 L 118.324219 162.121094 L 115.777344 149.144531 " fill-opacity="1" fill-rule="nonzero"/><path fill="#000000" d="M 118.863281 162.023438 L 116.085938 149.285156 L 119.742188 159.347656 C 119.742188 159.347656 120.238281 161.199219 119.21875 162.078125 L 118.863281 162.023438 " fill-opacity="1" fill-rule="nonzero"/><path fill="#000000" d="M 116.71875 163.078125 C 115.988281 163.0625 115.265625 163.425781 115.265625 163.425781 L 106.949219 168.402344 L 105.851562 169.246094 L 117.042969 164.074219 C 116.65625 163.734375 116.671875 163.3125 116.71875 163.078125 " fill-opacity="1" fill-rule="nonzero"/><path fill="#000000" d="M 118.039062 164.039062 L 106 169.230469 C 106 169.230469 106 169.230469 106 169.226562 C 106.019531 169.210938 106.070312 169.167969 106.140625 169.121094 C 106.773438 168.671875 109.050781 167.300781 111.160156 166.046875 C 112.21875 165.417969 113.234375 164.820312 113.984375 164.378906 C 114.738281 163.9375 115.222656 163.652344 115.222656 163.652344 L 115.226562 163.648438 L 115.230469 163.648438 C 115.230469 163.648438 115.253906 163.632812 115.296875 163.605469 C 115.429688 163.527344 115.75 163.363281 116.160156 163.285156 C 116.328125 163.25 116.507812 163.234375 116.695312 163.242188 C 116.703125 163.140625 116.722656 163.054688 116.742188 162.992188 C 116.519531 162.980469 116.304688 163 116.113281 163.039062 C 115.664062 163.125 115.320312 163.304688 115.171875 163.390625 C 115.128906 163.414062 115.101562 163.433594 115.09375 163.4375 C 114.980469 163.503906 112.746094 164.8125 110.5 166.148438 C 109.347656 166.835938 108.195312 167.527344 107.320312 168.070312 C 106.878906 168.339844 106.511719 168.570312 106.25 168.742188 C 106.117188 168.832031 106.015625 168.902344 105.9375 168.957031 C 105.898438 168.984375 105.871094 169.011719 105.84375 169.03125 C 105.832031 169.042969 105.820312 169.054688 105.808594 169.066406 C 105.800781 169.078125 105.789062 169.089844 105.773438 169.117188 C 105.730469 169.234375 105.710938 169.324219 105.761719 169.417969 C 105.800781 169.488281 105.875 169.507812 105.914062 169.511719 C 105.957031 169.515625 105.980469 169.507812 105.992188 169.503906 L 106 169.503906 L 118.136719 164.269531 L 118.039062 164.039062 " fill-opacity="1" fill-rule="nonzero"/><path fill="#000000" d="M 119.5 164.601562 L 120.113281 164.601562 L 120.21875 164.042969 C 120.085938 164.257812 119.863281 164.464844 119.5 164.601562 " fill-opacity="1" fill-rule="nonzero"/><path fill="#000000" d="M 122.273438 165.738281 C 122.273438 165.738281 122.25 165.734375 122.207031 165.726562 C 122.058594 165.703125 121.667969 165.625 121.265625 165.457031 C 120.863281 165.292969 120.453125 165.039062 120.246094 164.679688 C 120.222656 164.636719 120.199219 164.59375 120.183594 164.546875 C 120.210938 164.472656 120.320312 164.34375 120.371094 164.179688 C 120.410156 164.0625 120.480469 163.933594 120.503906 163.820312 C 120.507812 163.785156 120.511719 163.753906 120.515625 163.722656 L 132.628906 167.269531 Z M 133 167.199219 C 132.964844 167.144531 132.925781 167.121094 132.898438 167.101562 C 132.867188 167.082031 132.84375 167.074219 132.839844 167.074219 L 132.835938 167.070312 L 120.40625 163.433594 C 120.355469 163.894531 120.140625 164.164062 120.035156 164.269531 C 120.011719 164.320312 119.988281 164.363281 119.972656 164.398438 C 119.949219 164.460938 119.933594 164.496094 119.933594 164.496094 L 119.914062 164.542969 L 119.929688 164.589844 C 119.957031 164.664062 119.992188 164.738281 120.03125 164.804688 C 120.324219 165.300781 120.878906 165.585938 121.351562 165.757812 C 121.832031 165.929688 122.234375 165.984375 122.238281 165.984375 L 132.765625 167.542969 L 132.796875 167.53125 C 132.832031 167.515625 132.863281 167.503906 132.890625 167.488281 C 132.941406 167.457031 132.984375 167.421875 133.007812 167.367188 C 133.035156 167.308594 133.023438 167.238281 133 167.199219 " fill-opacity="1" fill-rule="nonzero"/><path fill="#000000" d="M 124.878906 162.203125 L 119.804688 162.203125 C 119.914062 162.273438 120.003906 162.347656 120.078125 162.425781 L 124.734375 162.425781 C 124.734375 162.425781 125.132812 162.425781 125.285156 162.609375 L 120.21875 162.609375 C 120.269531 162.6875 120.304688 162.761719 120.332031 162.832031 L 125.296875 162.839844 C 125.296875 162.839844 125.265625 163.117188 125.148438 163.246094 L 120.417969 163.246094 C 120.421875 163.300781 120.417969 163.332031 120.417969 163.332031 L 124.347656 164.472656 C 124.65625 164.324219 125.082031 164.007812 125.394531 163.335938 C 125.941406 162.15625 124.878906 162.203125 124.878906 162.203125 " fill-opacity="1" fill-rule="nonzero"/><path fill="#000000" d="M 120.429688 165.375 L 119.8125 204.226562 L 120.128906 204.226562 L 120.652344 165.539062 C 120.554688 165.476562 120.480469 165.421875 120.429688 165.375 Z M 121.875 166.007812 C 121.417969 165.910156 121.074219 165.773438 120.832031 165.644531 L 120.535156 204.226562 L 122.214844 204.226562 L 121.875 166.007812 " fill-opacity="1" fill-rule="nonzero"/><path fill="#ffde32" d="M 129.9375 167.824219 L 129.988281 165.578125 L 130.816406 165.878906 L 130.542969 167.941406 L 129.9375 167.824219 " fill-opacity="1" fill-rule="nonzero"/><path fill="#000000" d="M 132.566406 151.183594 C 132.460938 151.183594 132.355469 151.1875 132.25 151.195312 C 133.128906 151.308594 133.804688 152.054688 133.804688 152.960938 C 133.804688 153.871094 133.125 154.617188 132.246094 154.726562 C 132.351562 154.734375 132.457031 154.742188 132.566406 154.742188 C 133.546875 154.742188 134.347656 153.945312 134.347656 152.960938 C 134.347656 151.980469 133.546875 151.183594 132.566406 151.183594 " fill-opacity="1" fill-rule="nonzero"/><path fill="#000000" d="M 130.144531 151.914062 C 130.144531 151.914062 131.203125 151.125 132.417969 151.464844 C 132.417969 151.464844 132.847656 151.667969 133.140625 152.09375 C 133.140625 152.09375 131.867188 151.214844 130.144531 151.914062 Z M 130.179688 153.75 C 129.816406 153.75 129.527344 153.386719 129.527344 152.941406 C 129.527344 152.492188 129.816406 152.128906 130.179688 152.128906 C 130.539062 152.128906 130.832031 152.492188 130.832031 152.941406 C 130.832031 153.386719 130.539062 153.75 130.179688 153.75 Z M 131.800781 151.183594 C 130.425781 151.183594 129.324219 151.980469 129.324219 152.960938 C 129.324219 153.945312 130.382812 154.742188 131.800781 154.742188 C 132.785156 154.742188 133.582031 153.945312 133.582031 152.960938 C 133.582031 151.980469 132.785156 151.183594 131.800781 151.183594 " fill-opacity="1" fill-rule="nonzero"/><path fill="#000000" d="M 130.316406 152.941406 C 130.316406 153.207031 130.167969 153.421875 129.984375 153.421875 C 129.796875 153.421875 129.648438 153.207031 129.648438 152.941406 C 129.648438 152.671875 129.796875 152.457031 129.984375 152.457031 C 130.167969 152.457031 130.316406 152.671875 130.316406 152.941406 " fill-opacity="1" fill-rule="nonzero"/><path fill="#000000" d="M 136.882812 150.503906 C 136.882812 150.503906 136.863281 150.527344 136.824219 150.574219 C 136.695312 150.730469 136.339844 151.132812 135.871094 151.492188 C 135.402344 151.851562 134.828125 152.15625 134.269531 152.152344 C 134.199219 152.152344 134.132812 152.148438 134.066406 152.140625 C 134 152.054688 133.863281 151.882812 133.707031 151.707031 C 133.597656 151.585938 133.476562 151.457031 133.355469 151.355469 C 133.320312 151.328125 133.285156 151.300781 133.253906 151.273438 L 145.714844 139.433594 Z M 146.085938 139.054688 C 146.035156 138.984375 145.945312 138.953125 145.882812 138.957031 C 145.796875 138.957031 145.742188 138.984375 145.699219 139.007812 C 145.660156 139.03125 145.632812 139.050781 145.628906 139.054688 L 145.621094 139.058594 L 132.714844 151.316406 L 132.859375 151.367188 L 132.925781 151.402344 L 132.976562 151.4375 C 132.976562 151.4375 132.996094 151.445312 133.03125 151.46875 L 133.046875 151.484375 C 133.179688 151.5625 133.363281 151.773438 133.535156 151.972656 L 133.558594 152.007812 C 133.644531 152.109375 133.695312 152.214844 133.75 152.285156 C 133.804688 152.355469 133.839844 152.398438 133.839844 152.398438 L 133.878906 152.453125 L 133.945312 152.464844 C 134.050781 152.484375 134.160156 152.492188 134.269531 152.492188 C 135.046875 152.488281 135.757812 152.035156 136.28125 151.59375 C 136.804688 151.152344 137.144531 150.71875 137.148438 150.710938 L 146.128906 139.460938 L 146.136719 139.417969 C 146.144531 139.363281 146.148438 139.320312 146.148438 139.277344 C 146.144531 139.199219 146.132812 139.125 146.085938 139.054688 " fill-opacity="1" fill-rule="nonzero"/><path fill="#000000" d="M 133.601562 151.65625 L 145.96875 139.222656 L 137.21875 150.371094 C 137.21875 150.371094 135.597656 152.535156 133.972656 152.296875 L 133.601562 151.65625 " fill-opacity="1" fill-rule="nonzero"/><path fill="#000000" d="M 113.058594 146.820312 L 113.03125 146.734375 C 113.03125 146.726562 113.015625 146.675781 113.015625 146.605469 C 113.015625 146.554688 113.023438 146.480469 113.074219 146.40625 C 113.125 146.328125 113.230469 146.28125 113.328125 146.28125 C 113.367188 146.285156 113.375 146.289062 113.414062 146.292969 C 113.449219 146.296875 113.496094 146.304688 113.554688 146.316406 C 113.667969 146.335938 113.832031 146.363281 114.035156 146.402344 C 114.441406 146.472656 115.007812 146.578125 115.683594 146.703125 C 117.039062 146.953125 118.820312 147.289062 120.601562 147.621094 C 124.15625 148.289062 127.6875 148.957031 127.6875 148.957031 C 127.746094 148.964844 128.234375 149.054688 128.835938 149.382812 C 129.46875 149.730469 130.222656 150.347656 130.714844 151.414062 L 130.40625 151.558594 C 129.558594 149.699219 127.84375 149.328125 127.648438 149.292969 C 127.632812 149.289062 127.628906 149.289062 127.628906 149.289062 L 127.625 149.289062 C 127.621094 149.285156 126.960938 149.160156 125.914062 148.964844 C 124.871094 148.769531 123.449219 148.5 121.933594 148.214844 C 118.90625 147.644531 115.511719 147.011719 114.042969 146.746094 C 113.910156 146.722656 113.796875 146.703125 113.699219 146.683594 L 129.570312 152.171875 L 129.460938 152.492188 L 113.058594 146.820312 " fill-opacity="1" fill-rule="nonzero"/><path fill="#000000" d="M 129.988281 151.890625 L 113.433594 146.554688 L 127.691406 149.121094 C 127.691406 149.121094 130.191406 149.796875 130.527344 151.589844 L 129.988281 151.890625 " fill-opacity="1" fill-rule="nonzero"/><path fill="#000000" d="M 129.957031 172.320312 C 129.816406 172.3125 129.722656 172.230469 129.617188 172.097656 C 129.589844 172.0625 129.585938 172.042969 129.578125 172.019531 C 129.574219 172 129.566406 171.980469 129.5625 171.957031 C 129.554688 171.914062 129.546875 171.863281 129.539062 171.796875 C 129.527344 171.671875 129.515625 171.5 129.503906 171.289062 C 129.480469 170.863281 129.457031 170.277344 129.441406 169.582031 C 129.402344 168.1875 129.375 166.367188 129.359375 164.550781 C 129.320312 161.015625 129.3125 157.515625 129.3125 157.339844 C 129.308594 157.324219 129.308594 157.28125 129.308594 157.214844 C 129.308594 156.980469 129.332031 156.457031 129.535156 155.875 C 129.738281 155.289062 130.125 154.640625 130.84375 154.183594 L 131.023438 154.46875 C 130.382812 154.875 130.042969 155.449219 129.855469 155.984375 C 129.671875 156.515625 129.648438 157.003906 129.648438 157.214844 C 129.648438 157.285156 129.648438 157.320312 129.648438 157.320312 L 129.648438 157.332031 C 129.648438 157.332031 129.652344 158.09375 129.65625 159.273438 C 129.664062 160.453125 129.671875 162.050781 129.6875 163.710938 C 129.71875 167.03125 129.773438 170.625 129.867188 171.671875 C 129.878906 171.789062 129.890625 171.878906 129.898438 171.910156 C 129.898438 171.910156 129.902344 171.914062 129.902344 171.914062 L 132.015625 154.304688 L 132.351562 154.34375 L 130.21875 172.097656 L 130.21875 172.109375 C 130.214844 172.121094 130.203125 172.15625 130.171875 172.203125 C 130.140625 172.25 130.066406 172.320312 129.957031 172.320312 " fill-opacity="1" fill-rule="nonzero"/><path fill="#000000" d="M 131.472656 154.492188 L 129.820312 172.097656 L 129.582031 170.238281 L 129.414062 157.128906 C 129.414062 157.128906 129.546875 154.933594 130.898438 154.359375 L 131.472656 154.492188 " fill-opacity="1" fill-rule="nonzero"/><path fill="#000000" d="M 140.539062 151.453125 L 136.644531 151.453125 C 136.644531 151.453125 136.535156 151.582031 136.34375 151.753906 L 140.347656 151.753906 C 140.347656 151.753906 140.886719 151.753906 141.089844 152 L 136.035156 152 C 135.898438 152.101562 135.738281 152.207031 135.558594 152.300781 L 141.109375 152.308594 C 141.109375 152.308594 141.066406 152.6875 140.90625 152.863281 L 134.503906 152.863281 C 134.527344 153.292969 134.433594 154.25 133.265625 154.695312 L 134.40625 154.695312 L 134.40625 154.683594 C 134.40625 154.640625 134.421875 154.609375 134.441406 154.589844 C 134.457031 154.566406 134.472656 154.554688 134.488281 154.546875 C 134.519531 154.527344 134.546875 154.515625 134.578125 154.507812 C 134.636719 154.488281 134.714844 154.472656 134.804688 154.460938 C 134.984375 154.4375 135.230469 154.425781 135.5 154.425781 C 135.878906 154.425781 136.203125 154.453125 136.386719 154.496094 C 136.449219 154.519531 136.492188 154.519531 136.558594 154.589844 C 136.574219 154.609375 136.589844 154.640625 136.59375 154.679688 L 136.59375 154.695312 L 139.277344 154.695312 C 139.277344 154.695312 140.496094 154.582031 141.238281 152.984375 C 141.980469 151.386719 140.539062 151.453125 140.539062 151.453125 " fill-opacity="1" fill-rule="nonzero"/><path fill="#000000" d="M 134.839844 154.859375 L 135.078125 154.84375 L 134.664062 204.660156 L 136.941406 204.707031 L 136.457031 154.683594 C 136.457031 154.617188 136.027344 154.558594 135.5 154.558594 C 134.96875 154.558594 134.542969 154.617188 134.542969 154.683594 L 133.683594 204.640625 L 134.113281 204.652344 L 134.839844 154.859375 " fill-opacity="1" fill-rule="nonzero"/><path fill="#000000" d="M 102.5 157.683594 C 102.5 157.683594 102.492188 157.683594 102.492188 157.683594 C 101.71875 157.683594 101.085938 158.316406 101.085938 159.09375 C 101.085938 159.097656 101.085938 159.105469 101.085938 159.109375 C 101.019531 159.09375 100.949219 159.085938 100.882812 159.085938 C 100.613281 159.085938 100.359375 159.207031 100.179688 159.40625 C 100.144531 159.402344 100.109375 159.402344 100.109375 159.402344 C 100.03125 159.402344 99.953125 159.410156 99.878906 159.429688 C 99.773438 159.390625 99.664062 159.367188 99.550781 159.367188 C 99.21875 159.367188 98.917969 159.542969 98.75 159.820312 C 98.570312 159.800781 98.386719 159.789062 98.191406 159.789062 C 98.027344 159.789062 96.605469 159.804688 96.605469 160.335938 C 96.605469 160.863281 98.027344 160.878906 98.191406 160.878906 C 98.546875 160.878906 98.882812 160.84375 99.152344 160.78125 C 99.296875 161.175781 99.675781 161.449219 100.109375 161.449219 C 100.449219 161.449219 100.761719 161.277344 100.949219 161.011719 C 101.507812 161.792969 102.414062 162.269531 103.386719 162.269531 C 103.851562 162.269531 104.308594 162.15625 104.722656 161.953125 C 105.054688 162.265625 105.488281 162.445312 105.945312 162.445312 C 106.519531 162.445312 107.042969 162.175781 107.378906 161.714844 C 107.589844 161.800781 107.820312 161.851562 108.050781 161.851562 C 108.613281 161.851562 109.132812 161.582031 109.460938 161.128906 C 109.925781 161.21875 110.503906 161.273438 111.113281 161.273438 C 112.113281 161.273438 113.804688 161.113281 113.804688 160.519531 C 113.804688 159.925781 112.113281 159.765625 111.113281 159.765625 C 110.835938 159.765625 110.570312 159.777344 110.308594 159.800781 C 110.3125 159.757812 110.316406 159.71875 110.316406 159.679688 C 110.316406 159.109375 109.933594 158.617188 109.402344 158.457031 C 109.417969 158.367188 109.425781 158.273438 109.425781 158.179688 C 109.425781 157.296875 108.707031 156.574219 107.820312 156.574219 C 107.648438 156.574219 107.480469 156.601562 107.320312 156.65625 C 106.863281 155.851562 106.003906 155.335938 105.070312 155.335938 C 103.734375 155.335938 102.621094 156.371094 102.5 157.683594 " fill-opacity="1" fill-rule="nonzero"/><path fill="#000000" d="M 106.457031 174.613281 C 106.996094 174.371094 107.570312 174.246094 108.164062 174.246094 C 110.511719 174.246094 112.421875 176.15625 112.421875 178.5 C 112.421875 178.8125 112.386719 179.128906 112.308594 179.527344 L 112.277344 179.691406 L 95.199219 179.691406 L 95.242188 179.453125 C 95.496094 178.007812 96.722656 176.960938 98.160156 176.960938 C 98.363281 176.960938 98.558594 176.988281 98.757812 177.027344 C 98.929688 175.785156 99.988281 174.84375 101.265625 174.84375 C 101.457031 174.84375 101.648438 174.871094 101.835938 174.914062 C 102.085938 173.828125 103.0625 173.03125 104.195312 173.03125 C 105.214844 173.03125 106.105469 173.675781 106.457031 174.613281 " fill-opacity="1" fill-rule="nonzero"/><path fill="#000000" d="M 91.027344 175.398438 C 91.753906 175.101562 92.433594 175.246094 92.792969 175.371094 C 92.871094 174.871094 93.117188 174.398438 93.480469 174.066406 C 93.859375 173.722656 94.324219 173.558594 94.824219 173.59375 C 95.636719 173.652344 96.113281 174.039062 96.332031 174.277344 C 97.523438 173.28125 98.550781 173.605469 99.070312 173.894531 C 99.082031 173.109375 99.347656 171.464844 101.261719 171.058594 C 102.703125 170.753906 103.570312 171.5 103.90625 171.871094 C 104.539062 171.230469 105.324219 170.890625 106.136719 170.90625 C 106.933594 170.925781 107.714844 171.296875 108.179688 171.878906 C 108.65625 172.472656 108.765625 173.1875 108.765625 173.710938 C 108.765625 173.761719 108.761719 173.808594 108.761719 173.851562 C 108.257812 173.769531 107.390625 173.722656 106.496094 174.089844 C 106.496094 174.089844 106.019531 172.960938 104.671875 172.644531 C 103.324219 172.328125 101.878906 173.28125 101.5625 174.410156 C 101.5625 174.410156 100.730469 174.390625 99.976562 174.707031 C 99.222656 175.023438 98.628906 175.835938 98.46875 176.550781 C 98.46875 176.550781 96.804688 176.253906 95.617188 177.664062 L 89.53125 177.664062 L 89.53125 177.460938 C 89.53125 177.214844 89.9375 175.84375 91.027344 175.398438 " fill-opacity="1" fill-rule="nonzero"/><path fill="#000000" d="M 126.550781 183.316406 L 126.128906 185.730469 C 126.316406 185.8125 126.527344 185.847656 126.75 185.828125 C 127.441406 185.761719 127.949219 185.144531 127.882812 184.449219 C 127.816406 183.773438 127.226562 183.273438 126.550781 183.316406 " fill-opacity="1" fill-rule="nonzero"/><path fill="#000000" d="M 126.402344 185.308594 L 127.144531 184.984375 L 135.027344 202.617188 L 134.285156 202.941406 L 126.402344 185.308594 " fill-opacity="1" fill-rule="nonzero"/><path fill="#000000" d="M 101.882812 190.121094 L 102.628906 189.796875 L 108.992188 204.503906 L 108.246094 204.828125 L 101.882812 190.121094 " fill-opacity="1" fill-rule="nonzero"/><path fill="#000000" d="M 118.390625 203.773438 L 119.429688 198.496094 L 120.226562 198.652344 L 119.1875 203.925781 L 118.90625 203.820312 L 118.390625 203.773438 " fill-opacity="1" fill-rule="nonzero"/><path fill="#000000" d="M 94.859375 206.125 L 96.90625 200.285156 L 97.671875 200.550781 L 95.625 206.390625 L 95.070312 206.203125 L 94.859375 206.125 " fill-opacity="1" fill-rule="nonzero"/><path fill="#ffde32" d="M 126.070312 180.6875 L 99.910156 186.292969 L 94.003906 200.578125 L 123.285156 198.203125 L 126.070312 180.6875 " fill-opacity="1" fill-rule="nonzero"/><path fill="#000000" d="M 118.925781 193.4375 L 119.6875 189.816406 L 116.773438 190.253906 L 116.015625 193.820312 Z M 117.117188 186.363281 L 117.753906 183.367188 L 115.226562 183.867188 L 114.5 186.792969 Z M 115.910156 194.3125 L 115.195312 197.675781 L 118.101562 197.351562 L 118.824219 193.925781 Z M 120.289062 189.25 L 123.402344 188.78125 L 123.96875 185.71875 L 120.925781 186.21875 Z M 112.515625 194.757812 L 111.691406 198.066406 L 114.699219 197.730469 L 115.414062 194.375 Z M 120.53125 185.800781 L 121.183594 182.691406 L 118.257812 183.269531 L 117.617188 186.28125 Z M 117.511719 186.777344 L 116.878906 189.757812 L 119.789062 189.324219 L 120.425781 186.300781 Z M 119.421875 193.371094 L 122.628906 192.949219 L 123.308594 189.273438 L 120.1875 189.742188 Z M 121.03125 185.71875 L 124.058594 185.222656 L 124.652344 182.003906 L 121.691406 182.589844 Z M 101.511719 188.921875 L 102.492188 186.382812 L 100.457031 186.785156 L 99.414062 189.265625 Z M 119.320312 193.863281 L 118.597656 197.296875 L 121.894531 196.933594 L 122.539062 193.4375 Z M 109.125 195.207031 L 108.230469 198.449219 L 111.191406 198.121094 L 112.011719 194.824219 Z M 105.523438 195.679688 L 104.492188 198.863281 L 107.726562 198.503906 L 108.613281 195.273438 Z M 102.242188 196.113281 L 101.117188 199.238281 L 103.976562 198.917969 L 105.003906 195.75 Z M 99.082031 196.527344 L 97.898438 199.59375 L 100.59375 199.296875 L 101.714844 196.179688 Z M 94.9375 199.921875 L 97.367188 199.652344 L 98.546875 196.597656 L 96.203125 196.90625 Z M 115.515625 193.886719 L 116.273438 190.328125 L 113.515625 190.742188 L 112.636719 194.265625 Z M 112.132812 194.332031 L 113.007812 190.816406 L 110.214844 191.234375 L 109.261719 194.710938 Z M 114.375 187.292969 L 113.640625 190.246094 L 116.378906 189.832031 L 117.011719 186.859375 Z M 108.75 194.777344 L 109.703125 191.3125 L 106.796875 191.746094 L 105.683594 195.183594 Z M 107.898438 188.351562 L 106.960938 191.242188 L 109.839844 190.8125 L 110.640625 187.902344 Z M 111.15625 187.820312 L 110.351562 190.734375 L 113.132812 190.320312 L 113.867188 187.375 Z M 104.863281 188.851562 L 103.832031 191.710938 L 106.4375 191.320312 L 107.375 188.441406 Z M 101.3125 189.433594 L 99.199219 189.78125 L 98.019531 192.582031 L 100.226562 192.25 Z M 107.539062 187.933594 L 108.421875 185.210938 L 106 185.6875 L 105.042969 188.339844 Z M 110.777344 187.402344 L 111.550781 184.59375 L 108.953125 185.105469 L 108.0625 187.847656 Z M 104.511719 188.429688 L 105.460938 185.796875 L 103.039062 186.273438 L 102.054688 188.832031 Z M 105.164062 195.25 L 106.277344 191.824219 L 103.648438 192.21875 L 102.421875 195.609375 Z M 101.894531 195.679688 L 103.117188 192.296875 L 100.566406 192.679688 L 99.277344 196.027344 Z M 100.03125 192.757812 L 97.804688 193.089844 L 96.414062 196.402344 L 98.742188 196.097656 Z M 103.296875 191.792969 L 104.328125 188.9375 L 101.855469 189.34375 L 100.765625 192.171875 Z M 113.992188 186.875 L 114.714844 183.96875 L 112.070312 184.492188 L 111.292969 187.316406 L 113.992188 186.875 " fill-opacity="1" fill-rule="nonzero"/><path fill="#000000" d="M 94.265625 200.460938 L 100.101562 186.503906 L 125.582031 181.128906 L 122.574219 197.726562 Z M 93.691406 200.609375 L 94.234375 200.953125 L 123.125 198.578125 L 123.125 198.566406 L 123.140625 198.578125 L 123.675781 198.527344 L 126.722656 180.851562 L 126.425781 180.261719 L 99.730469 186.175781 L 93.691406 200.609375 " fill-opacity="1" fill-rule="nonzero"/><g clip-path="url(#2f487a4732)"><path fill="#000000" d="M 80.222656 209.207031 C 80.222656 209.207031 119.878906 201.421875 172.433594 209.207031 C 172.433594 209.207031 126.691406 195.09375 80.222656 209.207031 " fill-opacity="1" fill-rule="nonzero"/></g><path fill="#000000" d="M 90.964844 206.632812 L 91.300781 205.753906 L 91.570312 206.292969 C 91.570312 206.292969 91.976562 205.617188 91.839844 204.875 C 91.839844 204.875 92.246094 205.414062 92.3125 206.089844 L 92.652344 204.808594 L 92.988281 205.957031 C 92.988281 205.957031 92.921875 204.738281 93.800781 203.386719 C 93.800781 203.386719 93.53125 204.199219 93.9375 205.484375 C 93.9375 205.484375 94.070312 204.738281 94.207031 203.929688 C 94.207031 203.929688 94.476562 204.671875 94.613281 205.550781 C 94.613281 205.550781 95.625 204.132812 95.558594 203.117188 C 95.558594 203.117188 96.03125 204.539062 95.761719 205.210938 C 95.761719 205.210938 96.234375 203.929688 96.4375 203.253906 C 96.4375 203.253906 96.4375 204.539062 96.707031 205.011719 C 96.707031 205.011719 97.652344 203.457031 97.789062 202.441406 C 97.789062 202.441406 98.261719 203.929688 97.992188 204.738281 C 97.992188 204.738281 98.597656 203.523438 98.667969 202.847656 C 98.667969 202.847656 99.207031 203.726562 99.273438 204.402344 C 99.273438 204.402344 99.882812 202.914062 100.421875 202.644531 C 100.421875 202.644531 100.289062 203.253906 100.761719 204.335938 C 100.761719 204.335938 101.367188 202.375 101.097656 201.226562 C 101.097656 201.226562 102.179688 203.050781 102.113281 203.996094 C 102.113281 203.996094 102.449219 202.511719 102.992188 201.632812 C 102.992188 201.632812 102.992188 202.710938 103.195312 203.386719 L 103.800781 202.171875 C 103.800781 202.171875 103.800781 202.914062 104.410156 203.660156 C 104.410156 203.660156 104.277344 202.238281 105.222656 200.214844 C 105.222656 200.214844 105.222656 202.375 106.097656 203.253906 C 106.097656 203.253906 106.503906 201.699219 106.300781 201.363281 C 106.300781 201.363281 106.910156 202.644531 107.046875 203.457031 C 107.046875 203.457031 107.113281 202.375 107.789062 201.902344 C 107.789062 201.902344 107.652344 202.644531 108.125 203.253906 C 108.125 203.253906 108.871094 201.496094 108.53125 200.28125 C 108.53125 200.28125 109.410156 201.5625 109.546875 202.847656 C 109.546875 202.847656 109.34375 200.28125 110.492188 198.726562 C 110.492188 198.726562 109.75 200.617188 110.898438 202.914062 C 110.898438 202.914062 111.574219 201.5625 111.4375 200.484375 C 111.4375 200.484375 112.519531 201.835938 112.519531 202.78125 C 112.519531 202.78125 112.585938 201.292969 113.195312 200.144531 C 113.195312 200.144531 113.398438 201.96875 113.601562 202.578125 C 113.601562 202.578125 114.277344 201.429688 114.207031 200.6875 C 114.207031 200.6875 114.882812 201.699219 114.75 202.644531 C 114.75 202.644531 115.558594 200.890625 115.222656 199.265625 C 115.222656 199.265625 116.234375 201.632812 116.234375 202.578125 C 116.234375 202.578125 116.304688 200.890625 117.113281 199.738281 C 117.113281 199.738281 116.910156 201.089844 117.386719 202.039062 L 117.925781 200.6875 C 117.925781 200.6875 117.992188 201.5625 118.332031 202.238281 C 118.332031 202.238281 118.398438 200.820312 119.816406 198.660156 C 119.816406 198.660156 119.074219 201.496094 119.75 202.238281 C 119.75 202.238281 120.492188 200.890625 120.492188 200.214844 C 120.492188 200.214844 121.167969 201.429688 120.964844 202.238281 C 120.964844 202.238281 122.453125 200.347656 122.453125 198.523438 C 122.453125 198.523438 122.992188 201.292969 122.789062 202.039062 C 122.789062 202.039062 123.195312 200.28125 123.601562 199.335938 C 123.601562 199.335938 123.398438 201.226562 123.804688 202.039062 C 123.804688 202.039062 124.886719 200.214844 124.886719 198.726562 C 124.886719 198.726562 125.628906 200.753906 125.628906 202.375 C 125.628906 203.996094 125.628906 203.996094 125.628906 203.996094 C 125.628906 203.996094 107.046875 204.132812 90.964844 206.632812 " fill-opacity="1" fill-rule="nonzero"/><path fill="#000000" d="M 160.226562 206.632812 L 159.886719 205.753906 L 159.617188 206.292969 C 159.617188 206.292969 159.214844 205.617188 159.347656 204.875 C 159.347656 204.875 158.941406 205.414062 158.875 206.089844 L 158.535156 204.808594 L 158.199219 205.957031 C 158.199219 205.957031 158.265625 204.738281 157.386719 203.386719 C 157.386719 203.386719 157.660156 204.199219 157.253906 205.484375 C 157.253906 205.484375 157.117188 204.738281 156.984375 203.929688 C 156.984375 203.929688 156.710938 204.671875 156.578125 205.550781 C 156.578125 205.550781 155.5625 204.132812 155.632812 203.117188 C 155.632812 203.117188 155.160156 204.539062 155.429688 205.210938 C 155.429688 205.210938 154.957031 203.929688 154.753906 203.253906 C 154.753906 203.253906 154.753906 204.539062 154.484375 205.011719 C 154.484375 205.011719 153.539062 203.457031 153.402344 202.441406 C 153.402344 202.441406 152.929688 203.929688 153.199219 204.738281 C 153.199219 204.738281 152.589844 203.523438 152.523438 202.847656 C 152.523438 202.847656 151.980469 203.726562 151.914062 204.402344 C 151.914062 204.402344 151.304688 202.914062 150.765625 202.644531 C 150.765625 202.644531 150.902344 203.253906 150.429688 204.335938 C 150.429688 204.335938 149.820312 202.375 150.089844 201.226562 C 150.089844 201.226562 149.007812 203.050781 149.078125 203.996094 C 149.078125 203.996094 148.738281 202.511719 148.199219 201.632812 C 148.199219 201.632812 148.199219 202.710938 147.996094 203.386719 L 147.386719 202.171875 C 147.386719 202.171875 147.386719 202.914062 146.78125 203.660156 C 146.78125 203.660156 146.914062 202.238281 145.96875 200.214844 C 145.96875 200.214844 145.96875 202.375 145.089844 203.253906 C 145.089844 203.253906 144.683594 201.699219 144.886719 201.363281 C 144.886719 201.363281 144.277344 202.644531 144.144531 203.457031 C 144.144531 203.457031 144.078125 202.375 143.398438 201.902344 C 143.398438 201.902344 143.535156 202.644531 143.0625 203.253906 C 143.0625 203.253906 142.320312 201.496094 142.65625 200.28125 C 142.65625 200.28125 141.777344 201.5625 141.644531 202.847656 C 141.644531 202.847656 141.847656 200.28125 140.699219 198.726562 C 140.699219 198.726562 141.441406 200.617188 140.292969 202.914062 C 140.292969 202.914062 139.617188 201.5625 139.75 200.484375 C 139.75 200.484375 138.671875 201.835938 138.671875 202.78125 C 138.671875 202.78125 138.601562 201.292969 137.996094 200.144531 C 137.996094 200.144531 137.792969 201.96875 137.589844 202.578125 C 137.589844 202.578125 136.914062 201.429688 136.980469 200.6875 C 136.980469 200.6875 136.304688 201.699219 136.441406 202.644531 C 136.441406 202.644531 135.628906 200.890625 135.96875 199.265625 C 135.96875 199.265625 134.953125 201.632812 134.953125 202.578125 C 134.953125 202.578125 134.886719 200.890625 134.074219 199.738281 C 134.074219 199.738281 134.277344 201.089844 133.804688 202.039062 L 133.265625 200.6875 C 133.265625 200.6875 133.195312 201.5625 132.859375 202.238281 C 132.859375 202.238281 132.792969 200.820312 131.371094 198.660156 C 131.371094 198.660156 132.117188 201.496094 131.441406 202.238281 C 131.441406 202.238281 130.695312 200.890625 130.695312 200.214844 C 130.695312 200.214844 130.019531 201.429688 130.222656 202.238281 C 130.222656 202.238281 128.738281 200.347656 128.738281 198.523438 C 128.738281 198.523438 128.195312 201.292969 128.398438 202.039062 C 128.398438 202.039062 127.992188 200.28125 127.589844 199.335938 C 127.589844 199.335938 127.789062 201.226562 127.386719 202.039062 C 127.386719 202.039062 126.304688 200.214844 126.304688 198.726562 C 126.304688 198.726562 125.5625 200.753906 125.5625 202.375 C 125.5625 203.996094 125.5625 203.996094 125.5625 203.996094 C 125.5625 203.996094 144.144531 204.132812 160.226562 206.632812 " fill-opacity="1" fill-rule="nonzero"/><path fill="#000000" d="M 155.148438 195.058594 C 155.148438 195.058594 158.066406 196.734375 159.523438 194.519531 C 159.523438 194.519531 164.066406 193.222656 160.445312 189.976562 C 160.445312 189.976562 162.121094 187.976562 159.253906 187.4375 C 159.253906 187.4375 160.230469 185.222656 157.578125 185.222656 C 157.578125 185.222656 158.824219 181.273438 154.445312 182.300781 C 154.445312 182.300781 153.847656 180.085938 151.253906 180.300781 C 148.660156 180.519531 147.742188 182.03125 147.742188 182.03125 C 147.742188 182.03125 146.660156 180.679688 144.441406 181.4375 C 142.226562 182.195312 142.820312 184.246094 142.820312 184.246094 C 142.820312 184.246094 139.578125 184.949219 140.929688 188.628906 C 140.929688 188.628906 139.039062 188.734375 138.441406 190.410156 C 137.847656 192.085938 139.308594 194.410156 143.253906 193.980469 C 143.253906 193.980469 146.121094 195.492188 147.253906 193.492188 C 147.253906 193.492188 149.253906 194.355469 151.46875 193.601562 C 151.46875 193.601562 152.660156 196.25 155.148438 195.058594 " fill-opacity="1" fill-rule="nonzero"/><path fill="#000000" d="M 153.660156 194.953125 C 153.660156 194.953125 151.171875 195.707031 150.824219 198.304688 C 150.472656 200.898438 150.929688 204.84375 150.929688 204.84375 L 148.121094 204.925781 C 148.121094 204.925781 149.714844 199.492188 147.820312 197.167969 C 145.929688 194.84375 145.199219 193.871094 145.199219 193.871094 L 145.902344 193.277344 C 145.902344 193.277344 147.039062 196.058594 148.523438 196.007812 C 150.011719 195.953125 149.445312 192.980469 149.445312 192.980469 L 150.714844 192.816406 C 150.714844 192.816406 149.984375 195.898438 150.875 195.816406 C 151.769531 195.734375 152.660156 193.789062 152.660156 193.789062 L 153.660156 194.953125 " fill-opacity="1" fill-rule="nonzero"/><g clip-path="url(#58c35cb450)"><path fill="#000000" d="M 92.988281 205.957031 C 92.988281 205.957031 136.277344 200.050781 160.027344 207.964844 C 160.027344 207.964844 125.777344 243.335938 92.988281 205.957031 " fill-opacity="1" fill-rule="nonzero"/></g><path stroke-linecap="butt" transform="matrix(0, -0.75, 0.75, 0, 176.652298, 233.148383)" fill="none" stroke-linejoin="miter" d="M -0.0000725468 1.500061 L 140.869728 1.500061 " stroke="#000000" stroke-width="3" stroke-opacity="1" stroke-miterlimit="4"/><g clip-path="url(#d05f6f8245)"><path fill="#ffce3c" d="M 254.808594 125.027344 L 252.46875 123.9375 L 260.019531 117.152344 L 256.378906 123.839844 L 258.816406 124.980469 L 250.792969 131.414062 Z M 236.742188 116.695312 L 231.816406 116.238281 L 240.957031 99.164062 L 238.789062 113.542969 L 243.917969 114.015625 L 233.703125 130.769531 Z M 213.359375 122.515625 L 211.132812 125.425781 L 203.859375 112.976562 L 212.15625 119.988281 L 214.476562 116.960938 L 221.121094 129.957031 L 213.359375 122.515625 " fill-opacity="1" fill-rule="nonzero"/></g><g fill="#000000" fill-opacity="1"><g transform="translate(198.584595, 201.286315)"><g><path d="M 8.546875 0.375 C 6.140625 0.375 4.351562 -0.257812 3.1875 -1.53125 C 2.019531 -2.8125 1.394531 -4.84375 1.3125 -7.625 L 6.0625 -8.328125 C 6.082031 -6.734375 6.273438 -5.585938 6.640625 -4.890625 C 7.003906 -4.203125 7.546875 -3.859375 8.265625 -3.859375 C 9.203125 -3.859375 9.671875 -4.46875 9.671875 -5.6875 C 9.671875 -6.664062 9.445312 -7.503906 9 -8.203125 C 8.550781 -8.910156 7.851562 -9.671875 6.90625 -10.484375 L 4.71875 -12.375 C 3.644531 -13.289062 2.8125 -14.257812 2.21875 -15.28125 C 1.632812 -16.3125 1.34375 -17.53125 1.34375 -18.9375 C 1.34375 -21.050781 1.96875 -22.675781 3.21875 -23.8125 C 4.46875 -24.957031 6.191406 -25.53125 8.390625 -25.53125 C 10.773438 -25.53125 12.394531 -24.832031 13.25 -23.4375 C 14.113281 -22.050781 14.578125 -20.363281 14.640625 -18.375 L 9.859375 -17.78125 C 9.816406 -19.09375 9.695312 -20.03125 9.5 -20.59375 C 9.300781 -21.164062 8.867188 -21.453125 8.203125 -21.453125 C 7.734375 -21.453125 7.367188 -21.25 7.109375 -20.84375 C 6.847656 -20.4375 6.71875 -19.988281 6.71875 -19.5 C 6.71875 -18.644531 6.90625 -17.925781 7.28125 -17.34375 C 7.664062 -16.769531 8.285156 -16.109375 9.140625 -15.359375 L 11.21875 -13.53125 C 12.46875 -12.46875 13.429688 -11.34375 14.109375 -10.15625 C 14.796875 -8.976562 15.140625 -7.582031 15.140625 -5.96875 C 15.140625 -4.789062 14.863281 -3.71875 14.3125 -2.75 C 13.769531 -1.789062 13 -1.03125 12 -0.46875 C 11.007812 0.09375 9.859375 0.375 8.546875 0.375 Z M 8.546875 0.375 "/></g></g></g><g fill="#000000" fill-opacity="1"><g transform="translate(214.565538, 201.286315)"><g><path d="M 1.953125 -25.1875 L 7.53125 -25.1875 L 7.53125 -14.984375 L 11.40625 -14.984375 L 11.40625 -25.1875 L 17.015625 -25.1875 L 17.015625 0 L 11.40625 0 L 11.40625 -11 L 7.53125 -11 L 7.53125 0 L 1.953125 0 Z M 1.953125 -25.1875 "/></g></g></g><g fill="#000000" fill-opacity="1"><g transform="translate(233.531244, 201.286315)"><g><path d="M 1.890625 -25.1875 L 7.46875 -25.1875 L 7.46875 0 L 1.890625 0 Z M 1.890625 -25.1875 "/></g></g></g><g fill="#000000" fill-opacity="1"><g transform="translate(242.889735, 201.286315)"><g><path d="M 1.859375 -25.1875 L 5.78125 -25.1875 L 10.9375 -13.0625 L 10.9375 -25.1875 L 15.546875 -25.1875 L 15.546875 0 L 11.78125 0 L 6.625 -13.0625 L 6.625 0 L 1.859375 0 Z M 1.859375 -25.1875 "/></g></g></g><g fill="#000000" fill-opacity="1"><g transform="translate(260.331966, 201.286315)"><g><path d="M 1.859375 -25.1875 L 13.1875 -25.1875 L 13.1875 -21.390625 L 7.4375 -21.390625 L 7.4375 -15.140625 L 11.8125 -15.140625 L 11.8125 -11.28125 L 7.4375 -11.28125 L 7.4375 -3.765625 L 13.25 -3.765625 L 13.25 0 L 1.859375 0 Z M 1.859375 -25.1875 "/></g></g></g><g fill="#000000" fill-opacity="1"><g transform="translate(203.817589, 220.673913)"><g><path d="M 2.671875 -9.90625 L 2.671875 -6.203125 L 6.703125 -6.203125 L 6.703125 -5 L 2.671875 -5 L 2.671875 -1.1875 L 7.1875 -1.1875 L 7.1875 0 L 1.21875 0 L 1.21875 -11.09375 L 7.1875 -11.09375 L 7.1875 -9.90625 Z M 2.671875 -9.90625 "/></g></g></g><g fill="#000000" fill-opacity="1"><g transform="translate(211.967788, 220.673913)"><g><path d="M 2.671875 -1.171875 L 6.546875 -1.171875 L 6.546875 0 L 1.21875 0 L 1.21875 -11.078125 L 2.671875 -11.078125 Z M 2.671875 -1.171875 "/></g></g></g><g fill="#000000" fill-opacity="1"><g transform="translate(218.831111, 220.673913)"><g><path d="M 2.671875 -9.90625 L 2.671875 -6.203125 L 6.703125 -6.203125 L 6.703125 -5 L 2.671875 -5 L 2.671875 -1.1875 L 7.1875 -1.1875 L 7.1875 0 L 1.21875 0 L 1.21875 -11.09375 L 7.1875 -11.09375 L 7.1875 -9.90625 Z M 2.671875 -9.90625 "/></g></g></g><g fill="#000000" fill-opacity="1"><g transform="translate(226.98131, 220.673913)"><g><path d="M 0.6875 -5.546875 C 0.6875 -6.628906 0.925781 -7.597656 1.40625 -8.453125 C 1.894531 -9.316406 2.5625 -9.992188 3.40625 -10.484375 C 4.25 -10.972656 5.1875 -11.21875 6.21875 -11.21875 C 7.425781 -11.21875 8.476562 -10.925781 9.375 -10.34375 C 10.269531 -9.757812 10.925781 -8.929688 11.34375 -7.859375 L 9.609375 -7.859375 C 9.304688 -8.523438 8.863281 -9.039062 8.28125 -9.40625 C 7.707031 -9.769531 7.019531 -9.953125 6.21875 -9.953125 C 5.4375 -9.953125 4.738281 -9.769531 4.125 -9.40625 C 3.507812 -9.039062 3.023438 -8.523438 2.671875 -7.859375 C 2.328125 -7.203125 2.15625 -6.429688 2.15625 -5.546875 C 2.15625 -4.671875 2.328125 -3.898438 2.671875 -3.234375 C 3.023438 -2.566406 3.507812 -2.050781 4.125 -1.6875 C 4.738281 -1.332031 5.4375 -1.15625 6.21875 -1.15625 C 7.019531 -1.15625 7.707031 -1.332031 8.28125 -1.6875 C 8.863281 -2.039062 9.304688 -2.550781 9.609375 -3.21875 L 11.34375 -3.21875 C 10.925781 -2.164062 10.269531 -1.347656 9.375 -0.765625 C 8.476562 -0.191406 7.425781 0.09375 6.21875 0.09375 C 5.1875 0.09375 4.25 -0.144531 3.40625 -0.625 C 2.5625 -1.101562 1.894531 -1.769531 1.40625 -2.625 C 0.925781 -3.488281 0.6875 -4.460938 0.6875 -5.546875 Z M 0.6875 -5.546875 "/></g></g></g><g fill="#000000" fill-opacity="1"><g transform="translate(239.246328, 220.673913)"><g><path d="M 8.046875 -11.078125 L 8.046875 -9.90625 L 5.015625 -9.90625 L 5.015625 0 L 3.578125 0 L 3.578125 -9.90625 L 0.546875 -9.90625 L 0.546875 -11.078125 Z M 8.046875 -11.078125 "/></g></g></g><g fill="#000000" fill-opacity="1"><g transform="translate(247.841367, 220.673913)"><g><path d="M 7.0625 0 L 4.421875 -4.53125 L 2.671875 -4.53125 L 2.671875 0 L 1.21875 0 L 1.21875 -11.078125 L 4.796875 -11.078125 C 5.628906 -11.078125 6.332031 -10.929688 6.90625 -10.640625 C 7.488281 -10.359375 7.921875 -9.972656 8.203125 -9.484375 C 8.492188 -8.992188 8.640625 -8.4375 8.640625 -7.8125 C 8.640625 -7.050781 8.421875 -6.378906 7.984375 -5.796875 C 7.546875 -5.210938 6.882812 -4.828125 6 -4.640625 L 8.78125 0 Z M 2.671875 -5.6875 L 4.796875 -5.6875 C 5.578125 -5.6875 6.164062 -5.878906 6.5625 -6.265625 C 6.957031 -6.648438 7.15625 -7.164062 7.15625 -7.8125 C 7.15625 -8.46875 6.957031 -8.976562 6.5625 -9.34375 C 6.175781 -9.707031 5.585938 -9.890625 4.796875 -9.890625 L 2.671875 -9.890625 Z M 2.671875 -5.6875 "/></g></g></g><g fill="#000000" fill-opacity="1"><g transform="translate(257.500858, 220.673913)"><g><path d="M 6.25 0.109375 C 5.21875 0.109375 4.273438 -0.128906 3.421875 -0.609375 C 2.578125 -1.085938 1.910156 -1.757812 1.421875 -2.625 C 0.929688 -3.488281 0.6875 -4.460938 0.6875 -5.546875 C 0.6875 -6.628906 0.929688 -7.597656 1.421875 -8.453125 C 1.910156 -9.316406 2.578125 -9.988281 3.421875 -10.46875 C 4.273438 -10.957031 5.21875 -11.203125 6.25 -11.203125 C 7.28125 -11.203125 8.21875 -10.957031 9.0625 -10.46875 C 9.914062 -9.988281 10.585938 -9.320312 11.078125 -8.46875 C 11.566406 -7.613281 11.8125 -6.640625 11.8125 -5.546875 C 11.8125 -4.453125 11.566406 -3.472656 11.078125 -2.609375 C 10.585938 -1.753906 9.914062 -1.085938 9.0625 -0.609375 C 8.21875 -0.128906 7.28125 0.109375 6.25 0.109375 Z M 6.25 -1.140625 C 7.019531 -1.140625 7.710938 -1.316406 8.328125 -1.671875 C 8.953125 -2.035156 9.441406 -2.550781 9.796875 -3.21875 C 10.148438 -3.894531 10.328125 -4.671875 10.328125 -5.546875 C 10.328125 -6.429688 10.148438 -7.203125 9.796875 -7.859375 C 9.441406 -8.523438 8.957031 -9.039062 8.34375 -9.40625 C 7.726562 -9.769531 7.03125 -9.953125 6.25 -9.953125 C 5.457031 -9.953125 4.753906 -9.769531 4.140625 -9.40625 C 3.523438 -9.039062 3.039062 -8.523438 2.6875 -7.859375 C 2.332031 -7.203125 2.15625 -6.429688 2.15625 -5.546875 C 2.15625 -4.671875 2.332031 -3.894531 2.6875 -3.21875 C 3.039062 -2.550781 3.523438 -2.035156 4.140625 -1.671875 C 4.765625 -1.316406 5.46875 -1.140625 6.25 -1.140625 Z M 6.25 -1.140625 "/></g></g></g><g fill="#000000" fill-opacity="1"><g transform="translate(183.406149, 169.003539)"><g><path d="M 10.96875 0.484375 C 7.882812 0.484375 5.585938 -0.332031 4.078125 -1.96875 C 2.578125 -3.601562 1.773438 -6.203125 1.671875 -9.765625 L 7.78125 -10.6875 C 7.800781 -8.644531 8.046875 -7.175781 8.515625 -6.28125 C 8.984375 -5.394531 9.679688 -4.953125 10.609375 -4.953125 C 11.804688 -4.953125 12.40625 -5.734375 12.40625 -7.296875 C 12.40625 -8.546875 12.117188 -9.625 11.546875 -10.53125 C 10.972656 -11.4375 10.078125 -12.40625 8.859375 -13.4375 L 6.0625 -15.875 C 4.675781 -17.039062 3.601562 -18.28125 2.84375 -19.59375 C 2.09375 -20.914062 1.71875 -22.484375 1.71875 -24.296875 C 1.71875 -27.003906 2.519531 -29.085938 4.125 -30.546875 C 5.738281 -32.015625 7.953125 -32.75 10.765625 -32.75 C 13.828125 -32.75 15.910156 -31.859375 17.015625 -30.078125 C 18.117188 -28.296875 18.707031 -26.128906 18.78125 -23.578125 L 12.640625 -22.8125 C 12.585938 -24.488281 12.4375 -25.691406 12.1875 -26.421875 C 11.9375 -27.160156 11.382812 -27.53125 10.53125 -27.53125 C 9.914062 -27.53125 9.441406 -27.269531 9.109375 -26.75 C 8.773438 -26.226562 8.609375 -25.648438 8.609375 -25.015625 C 8.609375 -23.921875 8.851562 -23 9.34375 -22.25 C 9.84375 -21.507812 10.640625 -20.660156 11.734375 -19.703125 L 14.40625 -17.359375 C 16 -15.992188 17.234375 -14.550781 18.109375 -13.03125 C 18.984375 -11.519531 19.421875 -9.726562 19.421875 -7.65625 C 19.421875 -6.144531 19.066406 -4.769531 18.359375 -3.53125 C 17.660156 -2.289062 16.671875 -1.3125 15.390625 -0.59375 C 14.117188 0.125 12.644531 0.484375 10.96875 0.484375 Z M 10.96875 0.484375 "/></g></g></g><g fill="#000000" fill-opacity="1"><g transform="translate(203.913437, 169.003539)"><g><path d="M 11.640625 0.484375 C 8.160156 0.484375 5.675781 -0.410156 4.1875 -2.203125 C 2.695312 -4.003906 1.953125 -6.660156 1.953125 -10.171875 L 1.953125 -22.171875 C 1.953125 -25.679688 2.695312 -28.320312 4.1875 -30.09375 C 5.675781 -31.863281 8.160156 -32.75 11.640625 -32.75 C 15.148438 -32.75 17.65625 -31.859375 19.15625 -30.078125 C 20.664062 -28.296875 21.421875 -25.660156 21.421875 -22.171875 L 21.421875 -10.171875 C 21.421875 -6.660156 20.664062 -4.003906 19.15625 -2.203125 C 17.65625 -0.410156 15.148438 0.484375 11.640625 0.484375 Z M 11.640625 -4.59375 C 12.648438 -4.59375 13.316406 -4.929688 13.640625 -5.609375 C 13.960938 -6.285156 14.125 -7.207031 14.125 -8.375 L 14.125 -23.9375 C 14.125 -25.132812 13.960938 -26.0625 13.640625 -26.71875 C 13.316406 -27.382812 12.648438 -27.71875 11.640625 -27.71875 C 10.691406 -27.71875 10.054688 -27.378906 9.734375 -26.703125 C 9.410156 -26.023438 9.25 -25.101562 9.25 -23.9375 L 9.25 -8.375 C 9.25 -7.207031 9.394531 -6.285156 9.6875 -5.609375 C 9.976562 -4.929688 10.628906 -4.59375 11.640625 -4.59375 Z M 11.640625 -4.59375 "/></g></g></g><g fill="#000000" fill-opacity="1"><g transform="translate(227.293342, 169.003539)"><g><path d="M 2.390625 -32.3125 L 9.53125 -32.3125 L 9.53125 -4.828125 L 16.953125 -4.828125 L 16.953125 0 L 2.390625 0 Z M 2.390625 -32.3125 "/></g></g></g><g fill="#000000" fill-opacity="1"><g transform="translate(244.967911, 169.003539)"><g><path d="M 6.9375 -32.3125 L 15.078125 -32.3125 L 21.109375 0 L 14.515625 0 L 13.4375 -6.828125 L 8.703125 -6.828125 L 7.578125 0 L 0.84375 0 Z M 12.765625 -11.09375 L 11.046875 -23.6875 L 9.328125 -11.09375 Z M 12.765625 -11.09375 "/></g></g></g><g fill="#000000" fill-opacity="1"><g transform="translate(266.951406, 169.003539)"><g><path d="M 2.390625 -32.3125 L 11.28125 -32.3125 C 14.820312 -32.3125 17.492188 -31.6875 19.296875 -30.4375 C 21.109375 -29.1875 22.015625 -26.96875 22.015625 -23.78125 C 22.015625 -21.625 21.734375 -19.90625 21.171875 -18.625 C 20.617188 -17.351562 19.585938 -16.359375 18.078125 -15.640625 L 22.5 0 L 15.125 0 L 11.5625 -14.484375 L 9.53125 -14.484375 L 9.53125 0 L 2.390625 0 Z M 11.53125 -18.59375 C 12.96875 -18.59375 13.96875 -18.96875 14.53125 -19.71875 C 15.101562 -20.476562 15.390625 -21.617188 15.390625 -23.140625 C 15.390625 -24.597656 15.125 -25.691406 14.59375 -26.421875 C 14.0625 -27.160156 13.144531 -27.53125 11.84375 -27.53125 L 9.53125 -27.53125 L 9.53125 -18.59375 Z M 11.53125 -18.59375 "/></g></g></g></svg>