<?xml version="1.0" encoding="UTF-8"?>
<svg version="1.1" xmlns="http://www.w3.org/2000/svg" width="647" height="412">
<path d="M0 0 C213.51 0 427.02 0 647 0 C647 135.96 647 271.92 647 412 C433.49 412 219.98 412 0 412 C0 276.04 0 140.08 0 0 Z " fill="#FEFEFE" transform="translate(0,0)"/>
<path d="M0 0 C0.6801416 0.34691895 1.3602832 0.69383789 2.06103516 1.05126953 C11.86562868 6.1085088 20.88565819 11.43781755 29 19 C29.51369141 19.47276367 30.02738281 19.94552734 30.55664062 20.43261719 C43.07840351 32.05572449 52.08472174 44.75636328 59.20410156 60.26953125 C59.86208164 61.70013334 60.54846799 63.11763288 61.2421875 64.53125 C72.96180434 90.33257699 70.93559668 122.74707446 61.78613281 148.93261719 C56.60946716 162.54628325 48.7840927 175.23749802 39 186 C39.8656771 188.29250631 39.8656771 188.29250631 42.67041016 189.03076172 C45.85812906 189.9587016 49.03656324 190.77070252 52.2734375 191.5078125 C54.00400391 191.90419922 54.00400391 191.90419922 55.76953125 192.30859375 C56.95933594 192.57800781 58.14914062 192.84742188 59.375 193.125 C60.58800781 193.40214844 61.80101562 193.67929687 63.05078125 193.96484375 C66.03326025 194.64588226 69.01633555 195.32417743 72 196 C72 196.33 72 196.66 72 197 C60.91306929 196.33432507 49.97623447 194.63964829 39 193 C38.57158813 193.92329102 38.57158813 193.92329102 38.13452148 194.86523438 C29.03809742 211.9814668 -1.67028908 224.25067391 -19.25 229.875 C-32.20016292 233.75330808 -44.60371938 234.37556691 -58 234 C-59.07378906 233.98195313 -60.14757812 233.96390625 -61.25390625 233.9453125 C-85.86349174 232.80690991 -112.15952939 217.15236356 -128.47265625 199.29296875 C-129.20355469 198.47441406 -129.93445313 197.65585937 -130.6875 196.8125 C-133.57796927 193.90119851 -135.34695385 192.41053792 -139.5 192.25 C-142.08206767 192.46217062 -142.08206767 192.46217062 -145 193 C-145.66193359 193.11021484 -146.32386719 193.22042969 -147.00585938 193.33398438 C-149.9889767 193.83514809 -152.96756233 194.34581992 -155.93554688 194.93066406 C-160.02690885 195.73114793 -163.80527241 196.15829161 -168 196 C-165.21802642 194.14535095 -163.66750092 193.52591867 -160.5078125 192.78125 C-159.63769531 192.57113281 -158.76757812 192.36101562 -157.87109375 192.14453125 C-156.96488281 191.93183594 -156.05867188 191.71914063 -155.125 191.5 C-147.3097894 189.93261429 -147.3097894 189.93261429 -140 187 C-138.75136743 185.23054876 -138.75136743 185.23054876 -139 183 C-140.57267493 180.44277428 -140.57267493 180.44277428 -142.875 177.8125 C-152.04132031 166.28576164 -158.07466358 153.14275621 -162 139 C-162.29197266 138.03416992 -162.29197266 138.03416992 -162.58984375 137.04882812 C-168.13531657 118.47330642 -168.46052109 96.62348452 -163 78 C-162.68289062 76.82566406 -162.36578125 75.65132813 -162.0390625 74.44140625 C-157.41161406 58.93453115 -149.43021142 44.35202593 -139 32 C-138.15824219 30.99582031 -137.31648438 29.99164063 -136.44921875 28.95703125 C-104.11171129 -8.49076168 -44.81385935 -23.00942074 0 0 Z " fill="#FDDC32" transform="translate(198,122)"/>
<path d="M0 0 C0.99 0.33 1.98 0.66 3 1 C-5.14636721 11.49052593 -13.52158047 21.77638755 -22 32 C-18.04 32.33 -14.08 32.66 -10 33 C-10.60784314 38.47058824 -10.60784314 38.47058824 -12.25 40.6875 C-14.52907499 42.39680624 -15.87240671 42.30989536 -18.6875 42.1875 C-19.89986328 42.14689453 -19.89986328 42.14689453 -21.13671875 42.10546875 C-21.75160156 42.07066406 -22.36648437 42.03585938 -23 42 C-22.97494385 43.05606445 -22.9498877 44.11212891 -22.92407227 45.20019531 C-22.25427581 73.79821904 -21.80338866 102.39674244 -21.4375 131 C-21.4263982 131.86770523 -21.4152964 132.73541046 -21.40385818 133.62940979 C-21.26609418 144.419568 -21.13153652 155.20976411 -21 166 C-20.01 165.34 -19.02 164.68 -18 164 C-18 164.99 -18 165.98 -18 167 C-17.34 167 -16.68 167 -16 167 C-15.67 166.01 -15.34 165.02 -15 164 C-14.67 164 -14.34 164 -14 164 C-14 165.65 -14 167.3 -14 169 C-13.34 169 -12.68 169 -12 169 C-11.67 166.69 -11.34 164.38 -11 162 C-8.30274481 163.88807863 -6.86783571 165.19824644 -5 168 C-4.01 168 -3.02 168 -2 168 C-1.34 168.33 -0.68 168.66 0 169 C0.66 167.35 1.32 165.7 2 164 C4.35953094 166.35953094 4.49141413 167.77895617 5 171 C8.27884777 167.187793 8.63331085 164.5294349 8.48046875 159.609375 C7.64913876 155.09450969 5.34043995 152.06398975 2 149 C-0.84086977 147.54799989 -3.04063353 147.06463817 -6.203125 146.8515625 C-10.46848528 146.5549646 -12.51246053 146.35819227 -16.0625 143.75 C-18 141 -18 141 -18.6875 138.5 C-18 136 -18 136 -15 133.5625 C-14.01 132.716875 -13.02 131.87125 -12 131 C-11.74994614 127.95817107 -11.74994614 127.95817107 -12 125 C-10.6875 122.625 -10.6875 122.625 -9 121 C-8.01 121 -7.02 121 -6 121 C-6.1546875 119.88625 -6.1546875 119.88625 -6.3125 118.75 C-6 116 -6 116 -4.0625 113.625 C-0.21476614 111.5833453 1.77831001 112.13867015 5.94140625 112.8359375 C8.81786403 113.06518081 9.77935942 111.73487545 12 110 C15.07008267 109.49595658 17.93270972 109.4687933 21 110 C23.0625 111.875 23.0625 111.875 25 114 C27.65069113 114.9367491 30.23165002 115.44633 33 116 C33 118.31 33 120.62 33 123 C33.61875 123.061875 34.2375 123.12375 34.875 123.1875 C35.57625 123.455625 36.2775 123.72375 37 124 C37.71727778 125.64551962 38.38325228 127.31422289 39 129 C39.99 129.66 40.98 130.32 42 131 C42.042721 132.66611905 42.04063832 134.33382885 42 136 C42.66 136.99 43.32 137.98 44 139 C44.6875 141.8125 44.6875 141.8125 44 145 C40.35366465 148.48814292 36.64771022 150.78640793 31.625 151.4375 C29 151 29 151 26 150 C21.20890487 150.91520194 21.20890487 150.91520194 17.296875 153.640625 C15.51482053 156.8826759 15.67267405 159.38565108 15.75 163.0625 C15.77320313 164.90521484 15.77320313 164.90521484 15.796875 166.78515625 C15.86345933 170.01667235 15.86345933 170.01667235 17 173 C17.66 173 18.32 173 19 173 C19.33 172.34 19.66 171.68 20 171 C20.99 170.67 21.98 170.34 23 170 C23.33 170.99 23.66 171.98 24 173 C25.32 172.67 26.64 172.34 28 172 C28.66 173.32 29.32 174.64 30 176 C30.99 175.01 31.98 174.02 33 173 C37 176 37 176 38.69238281 177.49145508 C41.75223265 179.49175259 44.60302072 180.0490168 48.171875 180.82421875 C48.8542926 180.97534622 49.53671021 181.12647369 50.23980713 181.28218079 C52.40792832 181.7600721 54.5787713 182.22395494 56.75 182.6875 C58.22546226 183.01014607 59.70072544 183.33370394 61.17578125 183.65820312 C64.78160911 184.44937367 68.39001 185.2280146 72 186 C72 186.33 72 186.66 72 187 C60.91306929 186.33432507 49.97623447 184.63964829 39 183 C38.57158813 183.92329102 38.57158813 183.92329102 38.13452148 184.86523438 C29.03809742 201.9814668 -1.67028908 214.25067391 -19.25 219.875 C-32.20016292 223.75330808 -44.60371938 224.37556691 -58 224 C-59.07378906 223.98195313 -60.14757812 223.96390625 -61.25390625 223.9453125 C-85.86349174 222.80690991 -112.15952939 207.15236356 -128.47265625 189.29296875 C-129.20355469 188.47441406 -129.93445313 187.65585937 -130.6875 186.8125 C-133.57796927 183.90119851 -135.34695385 182.41053792 -139.5 182.25 C-142.08206767 182.46217062 -142.08206767 182.46217062 -145 183 C-145.66193359 183.11021484 -146.32386719 183.22042969 -147.00585938 183.33398438 C-149.9889767 183.83514809 -152.96756233 184.34581992 -155.93554688 184.93066406 C-160.02690885 185.73114793 -163.80527241 186.15829161 -168 186 C-165.21802642 184.14535095 -163.66750092 183.52591867 -160.5078125 182.78125 C-159.63769531 182.57113281 -158.76757812 182.36101562 -157.87109375 182.14453125 C-156.96488281 181.93183594 -156.05867188 181.71914063 -155.125 181.5 C-147.35491802 179.85494103 -147.35491802 179.85494103 -140 177 C-138.63921965 174.47627099 -138.63921965 174.47627099 -138 172 C-136.68 172.99 -135.36 173.98 -134 175 C-133.525625 173.906875 -133.05125 172.81375 -132.5625 171.6875 C-132.29566406 171.07261719 -132.02882812 170.45773437 -131.75390625 169.82421875 C-131.10038058 168.24288979 -130.54108198 166.62324594 -130 165 C-132.31 165 -134.62 165 -137 165 C-135.89804682 158.12281039 -132.99608186 151.70166076 -130.4375 145.26123047 C-129.81317354 143.67212454 -129.20242294 142.07761694 -128.60546875 140.47802734 C-123.75453996 127.49858736 -123.75453996 127.49858736 -120.15405273 124.42333984 C-117.75203407 123.55909359 -115.53943701 123.29602927 -113 123 C-110.95222826 122.54889841 -108.91966625 122.04687663 -106.8833313 121.54678345 C-103.76180802 120.78937738 -100.62637116 120.10123224 -97.48950195 119.41064453 C-95.06995658 118.87664568 -92.65313785 118.33138617 -90.23632812 117.78515625 C-88.66942251 117.43681702 -87.10236976 117.08913886 -85.53515625 116.7421875 C-84.82754654 116.58176971 -84.11993683 116.42135193 -83.3908844 116.256073 C-77.86440614 115.05304491 -72.72953591 114.57295359 -67 114 C-67 99.15 -67 84.3 -67 69 C-73.85628975 69 -76.08029541 69.03782188 -81.8359375 71.625 C-82.44136383 71.89135254 -83.04679016 72.15770508 -83.67056274 72.43212891 C-85.57848743 73.27440733 -87.47675761 74.13615236 -89.375 75 C-91.29620122 75.85985176 -93.21916354 76.71552813 -95.14370728 77.56787109 C-96.87571973 78.33715024 -98.60279653 79.11751343 -100.32958984 79.8984375 C-103 81 -103 81 -105 81 C-105 80.34 -105 79.68 -105 79 C-102.78442383 77.42773438 -102.78442383 77.42773438 -99.70703125 75.59375 C-98.60166016 74.93246094 -97.49628906 74.27117187 -96.35742188 73.58984375 C-95.77532959 73.24679199 -95.1932373 72.90374023 -94.59350586 72.55029297 C-92.83263989 71.51187687 -91.07898698 70.46209236 -89.32617188 69.41015625 C-83.63725912 66.02648988 -78.28602728 63.09534243 -72 61 C-72.14622803 60.29504395 -72.29245605 59.59008789 -72.44311523 58.86376953 C-73.11315186 55.61857033 -73.77536746 52.37182073 -74.4375 49.125 C-74.66759766 48.01640625 -74.89769531 46.9078125 -75.13476562 45.765625 C-76.46993778 39.18651585 -77.50083733 32.6965467 -78 26 C-74.27431691 29.72568309 -73.13680237 35.30125125 -71.375 40.1875 C-70.95476562 41.31220703 -70.53453125 42.43691406 -70.1015625 43.59570312 C-69.70453125 44.69205078 -69.3075 45.78839844 -68.8984375 46.91796875 C-68.53411621 47.91594482 -68.16979492 48.9139209 -67.79443359 49.94213867 C-67 53 -67 53 -67 60 C-60.07 60.495 -60.07 60.495 -53 61 C-52.505 62.98 -52.505 62.98 -52 65 C-52.66 65.66 -53.32 66.32 -54 67 C-50.04 68.32 -46.08 69.64 -42 71 C-42.01160156 69.09734375 -42.02320313 67.1946875 -42.03515625 65.234375 C-42.04453516 62.73958431 -42.05363525 60.24479257 -42.0625 57.75 C-42.07087891 56.49574219 -42.07925781 55.24148437 -42.08789062 53.94921875 C-42.09111328 52.74394531 -42.09433594 51.53867188 -42.09765625 50.296875 C-42.10289307 49.18666992 -42.10812988 48.07646484 -42.11352539 46.93261719 C-42 44 -42 44 -41.36889648 41.85644531 C-40.85303475 39.95453819 -40.85303475 39.95453819 -41.52563477 37.91601562 C-43.73339444 35.04691513 -46.18930257 34.50057718 -49.58984375 33.34375 C-50.24900284 33.11473999 -50.90816193 32.88572998 -51.58729553 32.64978027 C-53.69955324 31.91929355 -55.81804453 31.20929792 -57.9375 30.5 C-59.3292459 30.02350559 -60.72052797 29.5456541 -62.11132812 29.06640625 C-64.81162213 28.13718003 -67.51408817 27.21474396 -70.21826172 26.296875 C-75.17062053 24.59855802 -80.09023527 22.81732243 -85 21 C-85 20.34 -85 19.68 -85 19 C-77.69923079 19.68324759 -70.61824891 20.96880777 -63.4375 22.4375 C-62.35275391 22.65470703 -61.26800781 22.87191406 -60.15039062 23.09570312 C-57.09629716 23.71319743 -54.04704691 24.34868296 -51 25 C-50.17975342 25.1753125 -49.35950684 25.350625 -48.5144043 25.53125 C-43.25458365 26.73770169 -43.25458365 26.73770169 -40.9375 29.125 C-39.05163664 31.31689503 -39.05163664 31.31689503 -35.75 31.46484375 C-31.00932519 30.8771976 -29.08782284 28.85462033 -26.0625 25.4375 C-25.01366634 24.31978383 -23.96288911 23.20388819 -22.91015625 22.08984375 C-22.15822998 21.28135986 -22.15822998 21.28135986 -21.39111328 20.45654297 C-19.69194788 18.67745894 -17.88569751 17.07863194 -16 15.5 C-10.33658694 10.68849865 -5.21133562 5.28950566 0 0 Z " fill="#040401" transform="translate(198,132)"/>
<path d="M0 0 C1.25127686 0.01643555 1.25127686 0.01643555 2.52783203 0.03320312 C9.04773067 0.26210536 14.53539446 1.18037075 19.625 5.5625 C25.95176793 12.93363872 26.93444507 20.90873754 26.92578125 30.296875 C26.93006638 31.33007874 26.9343515 32.36328247 26.93876648 33.42779541 C26.94449673 35.60973378 26.94501968 37.79169125 26.94067383 39.97363281 C26.93752381 43.287447 26.96095558 46.60035917 26.98632812 49.9140625 C26.98860245 52.04166555 26.989304 54.16927098 26.98828125 56.296875 C26.997491 57.27638123 27.00670074 58.25588745 27.01618958 59.26507568 C26.95356952 68.7239949 25.30426724 77.02262441 18.546875 83.93359375 C11.25497221 90.11392599 1.63352552 89.24904056 -7.375 88.5625 C-12.48396057 87.5180014 -16.72593548 85.31292742 -20.375 81.5625 C-23.74329379 76.0435051 -25.47868907 71.04860182 -25.55200195 64.56958008 C-25.56483719 63.57787308 -25.57767242 62.58616608 -25.59089661 61.56440735 C-25.59828354 60.49772324 -25.60567047 59.43103912 -25.61328125 58.33203125 C-25.621353 57.22703781 -25.62942474 56.12204437 -25.63774109 54.98356628 C-25.6515672 52.64425214 -25.66229593 50.30491794 -25.67016602 47.96557617 C-25.68735182 44.40569321 -25.73124966 40.84674563 -25.77539062 37.28710938 C-25.78552054 35.01042347 -25.79403571 32.7337297 -25.80078125 30.45703125 C-25.81828934 29.40046829 -25.83579742 28.34390533 -25.85383606 27.25532532 C-25.83036798 19.17370241 -23.86151155 13.55867928 -19.625 6.75 C-13.9501747 1.23280873 -7.71912491 -0.14314846 0 0 Z " fill="#040404" transform="translate(385.375,124.4375)"/>
<path d="M0 0 C35 0 35 0 45 4 C51.38278708 10.38278708 52.19705724 14.54385525 52.25 23.3125 C52.270625 24.15490234 52.29125 24.99730469 52.3125 25.86523438 C52.34460352 30.99778472 51.9946804 34.64009766 49 39 C47.08459233 40.84012032 45.12709331 42.39286283 43 44 C45.41736789 54.05340644 48.08323472 64.00177246 51.06884766 73.90307617 C51.31940918 74.75361572 51.5699707 75.60415527 51.828125 76.48046875 C52.0540332 77.23223389 52.27994141 77.98399902 52.51269531 78.75854492 C53 81 53 81 53 86 C46.73 86 40.46 86 34 86 C31.34986589 76.72453061 28.78518812 67.47891766 26.6875 58.0625 C26.51637695 57.30018066 26.34525391 56.53786133 26.16894531 55.75244141 C25.51982918 52.77473925 25 50.0571829 25 47 C23.02 47 21.04 47 19 47 C19 59.87 19 72.74 19 86 C12.73 86 6.46 86 0 86 C0 57.62 0 29.24 0 0 Z " fill="#030303" transform="translate(529,126)"/>
<path d="M0 0 C-2.31680879 15.08533052 -4.90027617 30.05490298 -8 45 C-18.89 45.99 -29.78 46.98 -41 48 C-41.66 50.31 -42.32 52.62 -43 55 C-43.66 54.34 -44.32 53.68 -45 53 C-45.66 54.32 -46.32 55.64 -47 57 C-47.99 56.505 -47.99 56.505 -49 56 C-49.33 56.99 -49.66 57.98 -50 59 C-50 58.34 -50 57.68 -50 57 C-50.99 57.33 -51.98 57.66 -53 58 C-53.66 56.35 -54.32 54.7 -55 53 C-55.33 55.31 -55.66 57.62 -56 60 C-57.9375 59.625 -57.9375 59.625 -60 59 C-60.33 58.34 -60.66 57.68 -61 57 C-61.66 57.99 -62.32 58.98 -63 60 C-63.33 59.34 -63.66 58.68 -64 58 C-64.99 58.99 -65.98 59.98 -67 61 C-67.33 60.34 -67.66 59.68 -68 59 C-68.78375 59.515625 -69.5675 60.03125 -70.375 60.5625 C-71.24125 61.036875 -72.1075 61.51125 -73 62 C-73.66 61.67 -74.32 61.34 -75 61 C-75.33 61.66 -75.66 62.32 -76 63 C-76.66 63 -77.32 63 -78 63 C-77.69078116 61.54096742 -77.37751201 60.08279278 -77.0625 58.625 C-76.88847656 57.81289063 -76.71445313 57.00078125 -76.53515625 56.1640625 C-76 54 -76 54 -75 52 C-75.66 52 -76.32 52 -77 52 C-77.33 52.99 -77.66 53.98 -78 55 C-78 54.34 -78 53.68 -78 53 C-80.31 53 -82.62 53 -85 53 C-83.89804682 46.12281039 -80.99608186 39.70166076 -78.4375 33.26123047 C-77.81317354 31.67212454 -77.20242294 30.07761694 -76.60546875 28.47802734 C-71.68398687 15.30981124 -71.68398687 15.30981124 -67.90795898 12.37280273 C-65.56470631 11.56128553 -63.46454404 11.24829176 -61 11 C-59.21539071 10.55609719 -57.43547909 10.09297787 -55.66015625 9.61328125 C-53.79539037 9.17489769 -51.92948172 8.74134868 -50.0625 8.3125 C-49.13759766 8.08755859 -48.21269531 7.86261719 -47.25976562 7.63085938 C-42.80059823 6.60278224 -38.73135848 5.88947601 -34.1484375 6.04296875 C-27.72106175 6.20767542 -21.76055053 4.55213448 -15.5625 3 C-13.25196614 2.43477849 -10.94079582 1.8721505 -8.62890625 1.3125 C-7.61900635 1.06113281 -6.60910645 0.80976563 -5.56860352 0.55078125 C-3 0 -3 0 0 0 Z " fill="#CFB428" transform="translate(146,244)"/>
<path d="M0 0 C7.59 0 15.18 0 23 0 C25.93573664 15.2145264 28.86474836 30.43030573 31.78173828 45.6484375 C32.50714066 49.43270737 33.23405311 53.21667279 33.96435547 57 C34.69182688 60.76946683 35.4097752 64.54068828 36.125 68.3125 C36.42410278 69.85127808 36.42410278 69.85127808 36.72924805 71.42114258 C36.90367432 72.35079834 37.07810059 73.2804541 37.2578125 74.23828125 C37.4036377 75.00180908 37.54946289 75.76533691 37.69970703 76.55200195 C38.08335127 79.67948225 38 82.84907698 38 86 C32.39 86 26.78 86 21 86 C18 72.5 18 72.5 18 68 C13.71 68 9.42 68 5 68 C4.855625 69.670625 4.71125 71.34125 4.5625 73.0625 C4.18591558 77.42011976 3.62079931 81.65440483 3 86 C-2.94 86 -8.88 86 -15 86 C-15 81.21091925 -14.95850743 77.94404848 -14.00390625 73.4765625 C-13.77912598 72.39584473 -13.5543457 71.31512695 -13.32275391 70.20166016 C-13.07187012 69.0213623 -12.82098633 67.84106445 -12.5625 66.625 C-12.01575967 63.97986686 -11.47187417 61.33435027 -10.93359375 58.6875 C-10.78555298 57.95995514 -10.63751221 57.23241028 -10.48498535 56.4828186 C-8.21541621 45.22563185 -6.18753797 33.92152832 -4.125 22.625 C-3.8180571 20.94582489 -3.8180571 20.94582489 -3.50491333 19.23272705 C-2.33341801 12.82239211 -1.1661641 6.41131107 0 0 Z " fill="#050505" transform="translate(482,126)"/>
<path d="M0 0 C1.10794922 -0.04350586 1.10794922 -0.04350586 2.23828125 -0.08789062 C7.8969427 -0.15276064 11.1257128 1.01437995 15.75 4.3125 C20.83870218 10.0743713 21.59720771 16.88123847 21.75 24.3125 C15.98918159 25.6107126 10.66260345 26.56956972 4.75 26.3125 C4.68941406 25.60222656 4.62882812 24.89195312 4.56640625 24.16015625 C4.44072266 22.78150391 4.44072266 22.78150391 4.3125 21.375 C4.23128906 20.45847656 4.15007812 19.54195312 4.06640625 18.59765625 C3.98955024 16.35090268 3.98955024 16.35090268 2.75 15.3125 C0.75041636 15.27169217 -1.25045254 15.26995644 -3.25 15.3125 C-4.89440843 18.60131686 -4.87283327 21.77052896 -4.25 25.3125 C-1.30310161 31.46963663 4.36146283 35.82687092 9.34667969 40.3112793 C16.62570425 46.86217351 22.73081374 53.1781962 24.16796875 63.23828125 C24.50338849 70.37274976 23.34694033 75.74778276 18.75 81.3125 C11.87033385 87.65678357 6.53770624 88.62452602 -2.73046875 88.51953125 C-9.06748949 88.14676532 -13.18244377 86.79279716 -17.5625 82.125 C-22.59519472 75.58386817 -23.75814386 69.44280183 -23.25 61.3125 C-20.2884304 59.8317152 -17.41493705 59.95935963 -14.125 59.75 C-12.84367187 59.66621094 -11.56234375 59.58242187 -10.2421875 59.49609375 C-9.25476563 59.43550781 -8.26734375 59.37492187 -7.25 59.3125 C-7.08564453 60.45138672 -7.08564453 60.45138672 -6.91796875 61.61328125 C-6.75941406 62.60714844 -6.60085938 63.60101563 -6.4375 64.625 C-6.28667969 65.61113281 -6.13585937 66.59726563 -5.98046875 67.61328125 C-5.20599104 70.47512134 -4.64543338 71.60805702 -2.25 73.3125 C0.87549017 73.56298636 0.87549017 73.56298636 3.75 73.3125 C4.26756581 65.97374684 4.26756581 65.97374684 2.1875 59.0625 C-2.058582 54.27204851 -6.51327571 49.91457137 -11.375 45.75 C-17.50357804 40.43935597 -22.68850779 34.86994513 -23.71875 26.5078125 C-23.75291119 25.1514318 -23.76267992 23.79425157 -23.75 22.4375 C-23.74427979 21.73004639 -23.73855957 21.02259277 -23.73266602 20.29370117 C-23.53171725 14.42423809 -22.44070785 10.45095464 -18.25 6.3125 C-12.42350527 1.26372119 -7.55420968 0.09684884 0 0 Z " fill="#040404" transform="translate(328.25,124.6875)"/>
<path d="M0 0 C4.95 0 9.9 0 15 0 C15 8.91 15 17.82 15 27 C18.63 27 22.26 27 26 27 C26 18.09 26 9.18 26 0 C30.95 0 35.9 0 41 0 C41 22.11 41 44.22 41 67 C36.05 67 31.1 67 26 67 C26 57.1 26 47.2 26 37 C22.37 37 18.74 37 15 37 C15 46.9 15 56.8 15 67 C10.05 67 5.1 67 0 67 C0 44.89 0 22.78 0 0 Z " fill="#070707" transform="translate(388,231)"/>
<path d="M0 0 C1.65 0 3.3 0 5 0 C5.495 7.425 5.495 7.425 6 15 C6.33 15 6.66 15 7 15 C7.02361932 23.94807972 7.04115866 32.89614802 7.05181217 41.84425259 C7.05693633 46.00335766 7.06383181 50.16244077 7.07543945 54.3215332 C7.13590868 76.56920579 6.83516529 98.76686436 6 121 C2.81710625 118.73401205 1.33402039 117.21371762 -0.1484375 113.5703125 C-0.69286499 112.26259888 -0.69286499 112.26259888 -1.24829102 110.9284668 C-1.80601196 109.54075073 -1.80601196 109.54075073 -2.375 108.125 C-3.16087797 106.21667161 -3.94863715 104.30911684 -4.73828125 102.40234375 C-5.12064941 101.47534668 -5.50301758 100.54834961 -5.89697266 99.59326172 C-7.33028852 96.22347839 -8.9357921 92.9679632 -10.5625 89.6875 C-12.87306696 84.79902776 -13.63120151 81.36521281 -13 76 C-13.99 76 -14.98 76 -16 76 C-15.67 73.36 -15.34 70.72 -15 68 C-21.435 68.99 -21.435 68.99 -28 70 C-28 56.8 -28 43.6 -28 30 C-13.375 31.125 -13.375 31.125 -8 32 C-7.505 38.93 -7.505 38.93 -7 46 C-6.67 46 -6.34 46 -6 46 C-5.34 41.71 -4.68 37.42 -4 33 C-2.35 33.33 -0.7 33.66 1 34 C1 33.34 1 32.68 1 32 C-0.65 31.67 -2.3 31.34 -4 31 C-3.59537935 27.06684363 -3.18633011 23.13417552 -2.77319336 19.2019043 C-2.5645513 17.20711218 -2.35940662 15.21195528 -2.15429688 13.21679688 C-2.02216797 11.96318359 -1.89003906 10.70957031 -1.75390625 9.41796875 C-1.63345947 8.26063232 -1.5130127 7.1032959 -1.38891602 5.91088867 C-1 3 -1 3 0 0 Z " fill="#FBDB31" transform="translate(164,174)"/>
<path d="M0 0 C3.63 0 7.26 0 11 0 C14.96 9.57 18.92 19.14 23 29 C23.33 19.43 23.66 9.86 24 0 C27.96 0 31.92 0 36 0 C36 22.11 36 44.22 36 67 C32.7 67 29.4 67 26 67 C24.30821975 62.78291342 22.61757496 58.56537412 20.92797852 54.34741211 C20.35309497 52.91271683 19.77790192 51.47814554 19.20239258 50.04370117 C18.37499805 47.98128289 17.54871934 45.91842061 16.72265625 43.85546875 C16.33667015 42.89437447 16.33667015 42.89437447 15.94288635 41.91386414 C14.89388883 39.29153527 13.89344443 36.68033329 13 34 C12.67 44.89 12.34 55.78 12 67 C8.04 67 4.08 67 0 67 C0 44.89 0 22.78 0 0 Z " fill="#010101" transform="translate(464,231)"/>
<path d="M0 0 C6.27 0 12.54 0 19 0 C19 24.09 19 48.18 19 73 C25.6 73 32.2 73 39 73 C39 77.29 39 81.58 39 86 C26.13 86 13.26 86 0 86 C0 57.62 0 29.24 0 0 Z " fill="#050505" transform="translate(423,126)"/>
<path d="M0 0 C1.98 0 3.96 0 6 0 C6 93.06 6 186.12 6 282 C4.02 282 2.04 282 0 282 C0 188.94 0 95.88 0 0 Z " fill="#030303" transform="translate(282,101)"/>
<path d="M0 0 C0.99 0.33 1.98 0.66 3 1 C-5.14636721 11.49052593 -13.52158047 21.77638755 -22 32 C-18.04 32.33 -14.08 32.66 -10 33 C-10.60215054 38.41935484 -10.60215054 38.41935484 -12.15625 40.6875 C-15.98149971 43.41055911 -21.54536233 42.14369799 -26 42 C-26 46.95 -26 51.9 -26 57 C-26.66 57 -27.32 57 -28 57 C-28 73.83 -28 90.66 -28 108 C-28.33 108 -28.66 108 -29 108 C-29 86.22 -29 64.44 -29 42 C-30.65 42 -32.3 42 -34 42 C-34.08564209 42.83249268 -34.17128418 43.66498535 -34.25952148 44.52270508 C-34.57924353 47.61479073 -34.90199816 50.70654054 -35.22680664 53.7980957 C-35.4354487 55.79288782 -35.64059338 57.78804472 -35.84570312 59.78320312 C-36.04389648 61.66362305 -36.04389648 61.66362305 -36.24609375 63.58203125 C-36.36654053 64.73936768 -36.4869873 65.8967041 -36.61108398 67.08911133 C-37 70 -37 70 -38 73 C-36.35 73.33 -34.7 73.66 -33 74 C-33 74.66 -33 75.32 -33 76 C-34.65 75.67 -36.3 75.34 -38 75 C-38.33 79.29 -38.66 83.58 -39 88 C-39.99 88 -40.98 88 -42 88 C-42 83.38 -42 78.76 -42 74 C-44.124375 73.855625 -46.24875 73.71125 -48.4375 73.5625 C-53.99278206 73.18495656 -59.45385161 72.61623871 -65 72 C-65 85.53 -65 99.06 -65 113 C-65.66 113 -66.32 113 -67 113 C-67 98.48 -67 83.96 -67 69 C-73.85628975 69 -76.08029541 69.03782188 -81.8359375 71.625 C-82.44136383 71.89135254 -83.04679016 72.15770508 -83.67056274 72.43212891 C-85.57848743 73.27440733 -87.47675761 74.13615236 -89.375 75 C-91.29620122 75.85985176 -93.21916354 76.71552813 -95.14370728 77.56787109 C-96.87571973 78.33715024 -98.60279653 79.11751343 -100.32958984 79.8984375 C-103 81 -103 81 -105 81 C-105 80.34 -105 79.68 -105 79 C-102.78442383 77.42773438 -102.78442383 77.42773438 -99.70703125 75.59375 C-98.60166016 74.93246094 -97.49628906 74.27117187 -96.35742188 73.58984375 C-95.77532959 73.24679199 -95.1932373 72.90374023 -94.59350586 72.55029297 C-92.83263989 71.51187687 -91.07898698 70.46209236 -89.32617188 69.41015625 C-83.63725912 66.02648988 -78.28602728 63.09534243 -72 61 C-72.14622803 60.29504395 -72.29245605 59.59008789 -72.44311523 58.86376953 C-73.11315186 55.61857033 -73.77536746 52.37182073 -74.4375 49.125 C-74.78264648 47.46210938 -74.78264648 47.46210938 -75.13476562 45.765625 C-76.46993778 39.18651585 -77.50083733 32.6965467 -78 26 C-74.27431691 29.72568309 -73.13680237 35.30125125 -71.375 40.1875 C-70.95476562 41.31220703 -70.53453125 42.43691406 -70.1015625 43.59570312 C-69.70453125 44.69205078 -69.3075 45.78839844 -68.8984375 46.91796875 C-68.53411621 47.91594482 -68.16979492 48.9139209 -67.79443359 49.94213867 C-67 53 -67 53 -67 60 C-60.07 60.495 -60.07 60.495 -53 61 C-52.505 62.98 -52.505 62.98 -52 65 C-52.66 65.66 -53.32 66.32 -54 67 C-50.04 68.32 -46.08 69.64 -42 71 C-42.01160156 69.09734375 -42.02320313 67.1946875 -42.03515625 65.234375 C-42.04453516 62.73958431 -42.05363525 60.24479257 -42.0625 57.75 C-42.07087891 56.49574219 -42.07925781 55.24148437 -42.08789062 53.94921875 C-42.09111328 52.74394531 -42.09433594 51.53867188 -42.09765625 50.296875 C-42.10289307 49.18666992 -42.10812988 48.07646484 -42.11352539 46.93261719 C-42 44 -42 44 -41.36889648 41.85644531 C-40.85303475 39.95453819 -40.85303475 39.95453819 -41.52563477 37.91601562 C-43.73339444 35.04691513 -46.18930257 34.50057718 -49.58984375 33.34375 C-50.24900284 33.11473999 -50.90816193 32.88572998 -51.58729553 32.64978027 C-53.69955324 31.91929355 -55.81804453 31.20929792 -57.9375 30.5 C-59.3292459 30.02350559 -60.72052797 29.5456541 -62.11132812 29.06640625 C-64.81162213 28.13718003 -67.51408817 27.21474396 -70.21826172 26.296875 C-75.17062053 24.59855802 -80.09023527 22.81732243 -85 21 C-85 20.34 -85 19.68 -85 19 C-77.69923079 19.68324759 -70.61824891 20.96880777 -63.4375 22.4375 C-62.35275391 22.65470703 -61.26800781 22.87191406 -60.15039062 23.09570312 C-57.09629716 23.71319743 -54.04704691 24.34868296 -51 25 C-50.17975342 25.1753125 -49.35950684 25.350625 -48.5144043 25.53125 C-43.25458365 26.73770169 -43.25458365 26.73770169 -40.9375 29.125 C-39.05163664 31.31689503 -39.05163664 31.31689503 -35.75 31.46484375 C-31.00932519 30.8771976 -29.08782284 28.85462033 -26.0625 25.4375 C-25.01366634 24.31978383 -23.96288911 23.20388819 -22.91015625 22.08984375 C-22.15822998 21.28135986 -22.15822998 21.28135986 -21.39111328 20.45654297 C-19.69194788 18.67745894 -17.88569751 17.07863194 -16 15.5 C-10.33658694 10.68849865 -5.21133562 5.28950566 0 0 Z " fill="#2B2508" transform="translate(198,132)"/>
<path d="M0 0 C3.76916441 2.7326442 6.02501042 5.38753126 7.5 9.8125 C7.62781786 12.48644964 7.54391871 15.13345857 7.5 17.8125 C3.4472484 18.79498524 -0.33861737 18.89409574 -4.5 18.8125 C-5.16 16.1725 -5.82 13.5325 -6.5 10.8125 C-8.15 10.8125 -9.8 10.8125 -11.5 10.8125 C-11.97883782 15.60087818 -12.15456548 18.78974144 -9.5 22.9375 C-6.66530098 25.85273025 -3.51143872 28.44582464 -0.42578125 31.08984375 C4.5281355 35.52123784 8.90940015 40.58743954 9.85546875 47.35546875 C10.15260865 53.17780472 9.53597639 57.41122777 6.03125 62.15234375 C2.50757367 65.97265609 -0.34166676 67.56011426 -5.40625 68.15234375 C-11.08340021 68.32799815 -15.77423424 68.27037738 -20.5 64.8125 C-25.12321046 59.97914361 -27.58973138 56.18928181 -27.625 49.5 C-27.58375 48.283125 -27.5425 47.06625 -27.5 45.8125 C-21.065 45.3175 -21.065 45.3175 -14.5 44.8125 C-13.51 50.2575 -13.51 50.2575 -12.5 55.8125 C-10.85 55.8125 -9.2 55.8125 -7.5 55.8125 C-6.08376964 54.61122662 -6.08376964 54.61122662 -6.1875 51.125 C-6.29611408 46.74940404 -7.4149252 43.92774668 -10.5 40.8125 C-12.27786892 39.3785558 -14.07126513 37.96376886 -15.875 36.5625 C-21.93022867 31.71507464 -26.61899314 26.84186985 -27.99609375 18.98046875 C-28.22329075 13.94771106 -27.79474225 9.52367373 -24.875 5.31640625 C-18.09319451 -2.1011935 -9.37999058 -3.1824968 0 0 Z " fill="#060606" transform="translate(371.5,231.1875)"/>
<path d="M0 0 C9.9 0 19.8 0 30 0 C30 3.3 30 6.6 30 10 C25.05 10 20.1 10 15 10 C15 15.61 15 21.22 15 27 C18.96 27 22.92 27 27 27 C27 30.3 27 33.6 27 37 C23.04 37 19.08 37 15 37 C15 43.6 15 50.2 15 57 C20.28 57 25.56 57 31 57 C31 60.3 31 63.6 31 67 C20.77 67 10.54 67 0 67 C0 44.89 0 22.78 0 0 Z " fill="#040404" transform="translate(510,231)"/>
<path d="M0 0 C-0.66 2.64 -1.32 5.28 -2 8 C4.1105424 8.11269443 9.95170514 7.89604368 16 7 C15.88485851 9.04224637 15.75742674 11.08380159 15.625 13.125 C15.55539063 14.26195312 15.48578125 15.39890625 15.4140625 16.5703125 C15.00556124 19.95393616 14.19032431 22.81612441 13 26 C10.36 26 7.72 26 5 26 C5 24.02 5 22.04 5 20 C4.34 22.31 3.68 24.62 3 27 C1.35 27 -0.3 27 -2 27 C-2 27.66 -2 28.32 -2 29 C-0.68 29 0.64 29 2 29 C1.67 31.64 1.34 34.28 1 37 C-0.89492006 37.33848652 -2.79098466 37.67056911 -4.6875 38 C-5.74324219 38.185625 -6.79898438 38.37125 -7.88671875 38.5625 C-10.64904062 38.95068074 -13.21742043 39.08259976 -16 39 C-15.84402344 38.36191406 -15.68804687 37.72382813 -15.52734375 37.06640625 C-15.33269531 36.24011719 -15.13804688 35.41382813 -14.9375 34.5625 C-14.74027344 33.73878906 -14.54304688 32.91507812 -14.33984375 32.06640625 C-14.22769531 31.38449219 -14.11554688 30.70257813 -14 30 C-14.33 29.67 -14.66 29.34 -15 29 C-16.36523772 29.25990302 -17.71826308 29.58472427 -19.0625 29.9375 C-23.50739563 30.9988613 -27.44272048 31.16571926 -32 31 C-31.01 27.7 -30.02 24.4 -29 21 C-32.96 21.495 -32.96 21.495 -37 22 C-36.28766716 20.10044577 -35.57269815 18.20183408 -34.84375 16.30859375 C-34.2916489 14.79798379 -33.78909503 13.26810954 -33.34375 11.72265625 C-32.6875 9.5625 -32.6875 9.5625 -31 6 C-27.8125 5 -27.8125 5 -25 5 C-25 5.99 -25 6.98 -25 8 C-24.67 7.01 -24.34 6.02 -24 5 C-20.535 4.505 -20.535 4.505 -17 4 C-17 5.98 -17 7.96 -17 10 C-14.69 10 -12.38 10 -10 10 C-9.67 8.02 -9.34 6.04 -9 4 C-8.34 4 -7.68 4 -7 4 C-7 3.01 -7 2.02 -7 1 C-2.25 0 -2.25 0 0 0 Z " fill="#A89221" transform="translate(125,250)"/>
<path d="M0 0 C4.95 0 9.9 0 15 0 C15 22.11 15 44.22 15 67 C10.05 67 5.1 67 0 67 C0 44.89 0 22.78 0 0 Z " fill="#060606" transform="translate(439,231)"/>
<path d="M0 0 C3.33554863 0.62414659 3.33554863 0.62414659 6.4375 -0.4375 C10.09957344 -0.83555146 11.80207704 -0.90570639 14.8125 1.3125 C16.4375 3.5625 16.4375 3.5625 16.4375 7.5625 C12.94084409 7.80645274 11.00130744 7.92391503 8 6 C4.50854909 4.0413812 2.25589849 4.73892386 -1.5625 5.5625 C-1.8925 6.5525 -2.2225 7.5425 -2.5625 8.5625 C-2.2325 8.5625 -1.9025 8.5625 -1.5625 8.5625 C-0.9746875 7.82 -0.9746875 7.82 -0.375 7.0625 C1.4375 5.5625 1.4375 5.5625 4.375 5.1875 C7.4375 5.5625 7.4375 5.5625 9.375 7.0625 C11.46751895 8.90127318 11.46751895 8.90127318 14.8125 8.5 C19.27505651 8.57694063 21.05213368 9.72823983 24.4375 12.5625 C27.03400665 16.10319089 26.4375 17.71096402 26.4375 22.5625 C11.2575 22.5625 -3.9225 22.5625 -19.5625 22.5625 C-17.5625 17.5625 -17.5625 17.5625 -14.5625 15.5625 C-11.875 15.4375 -11.875 15.4375 -9.5625 15.5625 C-9.8925 15.2325 -10.2225 14.9025 -10.5625 14.5625 C-14.89479715 15.4229139 -14.89479715 15.4229139 -18.5625 17.5625 C-21.25904854 17.63569621 -23.92941458 17.65492537 -26.625 17.625 C-27.38361328 17.62048828 -28.14222656 17.61597656 -28.92382812 17.61132812 C-30.80341871 17.5995068 -32.68296899 17.58157078 -34.5625 17.5625 C-34.25 15.1875 -34.25 15.1875 -33.5625 12.5625 C-30.33458445 10.4105563 -29.27849191 10.36163557 -25.5625 10.5625 C-24.9025 9.2425 -24.2425 7.9225 -23.5625 6.5625 C-18.9425 6.5625 -14.3225 6.5625 -9.5625 6.5625 C-8.9025 4.9125 -8.2425 3.2625 -7.5625 1.5625 C-4.2070576 -0.6744616 -3.75358923 -0.59983222 0 0 Z " fill="#030300" transform="translate(84.5625,217.4375)"/>
<path d="M0 0 C0.33 0 0.66 0 1 0 C0.53251292 12.1780384 -1.79456197 24.04097782 -4 36 C-2.01432292 35.98372396 -0.02864583 35.96744792 1.95703125 35.95117188 C4.38858487 36.0092874 6.64326325 36.41081581 9 37 C7.66811259 40.56454713 6.08183951 43.71513246 4.09375 46.95703125 C3.51898926 47.89796631 2.94422852 48.83890137 2.35205078 49.80834961 C1.74087402 50.79971924 1.12969727 51.79108887 0.5 52.8125 C-0.43416748 54.33725952 -0.43416748 54.33725952 -1.38720703 55.89282227 C-6.54173911 64.292923 -11.74726951 72.66098777 -17 81 C-18.53625112 77.92749775 -17.39458555 75.71494131 -16.6015625 72.41796875 C-16.44714691 71.76677567 -16.29273132 71.11558258 -16.13363647 70.44465637 C-15.63726636 68.35731996 -15.13139707 66.27242419 -14.625 64.1875 C-14.1278312 62.11283195 -13.63259452 60.03771094 -13.13778687 57.96247864 C-12.68565987 56.07082975 -12.22893115 54.1802825 -11.77197266 52.28979492 C-11.12644054 49.53883183 -10.55416291 46.77081453 -10 44 C-14.29 43.67 -18.58 43.34 -23 43 C-18.44563373 33.65015394 -13.67255769 24.44064732 -8.6875 15.3125 C-8.17219727 14.36874512 -7.65689453 13.42499023 -7.12597656 12.45263672 C-2.177434 3.43330947 -2.177434 3.43330947 0 0 Z " fill="#FFCF41" transform="translate(452,28)"/>
<path d="M0 0 C3.125 0.25 3.125 0.25 4.7950592 1.43275452 C6.59975896 3.89871578 6.51190207 5.53386596 6.52905273 8.57592773 C6.54173691 9.66393173 6.55442108 10.75193573 6.56748962 11.87290955 C6.56455399 13.04793533 6.56161835 14.22296112 6.55859375 15.43359375 C6.5638356 16.64064468 6.56907745 17.84769562 6.57447815 19.09132385 C6.58090634 21.64591705 6.57955112 24.20053983 6.57104492 26.75512695 C6.56254092 30.66866689 6.5912787 34.58074521 6.62304688 38.49414062 C6.62465904 40.97395789 6.62408107 43.45377776 6.62109375 45.93359375 C6.63794472 47.69309608 6.63794472 47.69309608 6.65513611 49.48814392 C6.64575516 50.57930008 6.63637421 51.67045624 6.62670898 52.79467773 C6.62654282 53.75381577 6.62637665 54.7129538 6.62620544 55.70115662 C5.97851793 58.9949238 4.72392723 60.19118944 2.125 62.25 C-0.4375 62.6875 -0.4375 62.6875 -2.875 62.25 C-5.3798111 60.37139167 -5.86200625 59.28898126 -6.875 56.25 C-6.97690578 54.63529598 -7.02338408 53.01679207 -7.03613281 51.39892578 C-7.04574036 50.41425323 -7.0553479 49.42958069 -7.06524658 48.41506958 C-7.06949646 47.35254974 -7.07374634 46.29002991 -7.078125 45.1953125 C-7.08382507 44.10161346 -7.08952515 43.00791443 -7.09539795 41.881073 C-7.10484787 39.56607023 -7.1113819 37.25105401 -7.11523438 34.93603516 C-7.12494263 31.39592016 -7.15596783 27.85638503 -7.1875 24.31640625 C-7.19402986 22.06771178 -7.1992804 19.81901316 -7.203125 17.5703125 C-7.2154718 16.51184113 -7.2278186 15.45336975 -7.24053955 14.36282349 C-7.1989386 0.62599466 -7.1989386 0.62599466 0 0 Z " fill="#F5F5F5" transform="translate(385.875,137.75)"/>
<path d="M0 0 C3.72568309 3.72568309 4.86319763 9.30125125 6.625 14.1875 C7.25535156 15.87456055 7.25535156 15.87456055 7.8984375 17.59570312 C8.29546875 18.69205078 8.6925 19.78839844 9.1015625 20.91796875 C9.46588379 21.91594482 9.83020508 22.9139209 10.20556641 23.94213867 C11 27 11 27 11 34 C17.93 34.495 17.93 34.495 25 35 C25.495 36.98 25.495 36.98 26 39 C25.34 39.66 24.68 40.32 24 41 C27.96 42.32 31.92 43.64 36 45 C38.66697579 42.33302421 38.4685981 40.62363663 38.8515625 36.8984375 C38.98046875 35.68671875 39.109375 34.475 39.2421875 33.2265625 C39.36851562 31.95554688 39.49484375 30.68453125 39.625 29.375 C39.7590625 28.09625 39.893125 26.8175 40.03125 25.5 C40.36201973 22.33406112 40.68457756 19.16749872 41 16 C41.99 16 42.98 16 44 16 C43.59537935 19.93315637 43.18633011 23.86582448 42.77319336 27.7980957 C42.5645513 29.79288782 42.35940662 31.78804472 42.15429688 33.78320312 C41.95610352 35.66362305 41.95610352 35.66362305 41.75390625 37.58203125 C41.63345947 38.73936768 41.5130127 39.8967041 41.38891602 41.08911133 C41 44 41 44 40 47 C41.65 47.33 43.3 47.66 45 48 C45 48.66 45 49.32 45 50 C43.35 49.67 41.7 49.34 40 49 C39.67 53.29 39.34 57.58 39 62 C38.01 62 37.02 62 36 62 C36 57.38 36 52.76 36 48 C33.875625 47.855625 31.75125 47.71125 29.5625 47.5625 C24.00721794 47.18495656 18.54614839 46.61623871 13 46 C13 59.53 13 73.06 13 87 C12.34 87 11.68 87 11 87 C11 72.48 11 57.96 11 43 C4.14371025 43 1.91970459 43.03782188 -3.8359375 45.625 C-4.44136383 45.89135254 -5.04679016 46.15770508 -5.67056274 46.43212891 C-7.57848743 47.27440733 -9.47675761 48.13615236 -11.375 49 C-13.29620122 49.85985176 -15.21916354 50.71552813 -17.14370728 51.56787109 C-18.87571973 52.33715024 -20.60279653 53.11751343 -22.32958984 53.8984375 C-25 55 -25 55 -27 55 C-27 54.34 -27 53.68 -27 53 C-24.78442383 51.42773438 -24.78442383 51.42773438 -21.70703125 49.59375 C-20.60166016 48.93246094 -19.49628906 48.27117187 -18.35742188 47.58984375 C-17.77532959 47.24679199 -17.1932373 46.90374023 -16.59350586 46.55029297 C-14.83263989 45.51187687 -13.07898698 44.46209236 -11.32617188 43.41015625 C-5.63725912 40.02648988 -0.28602728 37.09534243 6 35 C5.85377197 34.29504395 5.70754395 33.59008789 5.55688477 32.86376953 C4.88684814 29.61857033 4.22463254 26.37182073 3.5625 23.125 C3.33240234 22.01640625 3.10230469 20.9078125 2.86523438 19.765625 C1.53006222 13.18651585 0.49916267 6.6965467 0 0 Z " fill="#433A0D" transform="translate(120,158)"/>
<path d="M0 0 C4.82159389 2.36531021 7.70321747 5.14142156 10 10 C10.93519064 14.88543589 11.14189047 19.09279996 8.53125 23.453125 C5.26956292 27.29528181 2.93969755 29.69135706 -2.26953125 30.23828125 C-8.03025737 30.40641304 -11.57920613 30.09732115 -16 26 C-19.26619018 21.53620676 -19.62782255 17.08601323 -19.48828125 11.6953125 C-18.70033823 7.34586705 -16.41953292 4.69013713 -13 2 C-8.76274534 -0.54749926 -4.82994218 -0.67199196 0 0 Z " fill="#FAFAFA" transform="translate(519,319)"/>
<path d="M0 0 C0.99 0.495 0.99 0.495 2 1 C1.67 2.98 1.34 4.96 1 7 C3.64 7.33 6.28 7.66 9 8 C8.67 8.99 8.34 9.98 8 11 C8 10.34 8 9.68 8 9 C5.36 9 2.72 9 0 9 C-0.33 11.97 -0.66 14.94 -1 18 C2.96 17.505 2.96 17.505 7 17 C7.99 18.485 7.99 18.485 9 20 C-1.89 20.99 -12.78 21.98 -24 23 C-24.66 25.31 -25.32 27.62 -26 30 C-26.66 29.34 -27.32 28.68 -28 28 C-28.66 29.32 -29.32 30.64 -30 32 C-30.66 31.67 -31.32 31.34 -32 31 C-32.33 31.99 -32.66 32.98 -33 34 C-33 33.34 -33 32.68 -33 32 C-34.485 32.495 -34.485 32.495 -36 33 C-36.66 31.35 -37.32 29.7 -38 28 C-38.33 30.31 -38.66 32.62 -39 35 C-40.9375 34.625 -40.9375 34.625 -43 34 C-43.33 33.34 -43.66 32.68 -44 32 C-44.66 32.99 -45.32 33.98 -46 35 C-46.33 34.34 -46.66 33.68 -47 33 C-47.99 33.99 -48.98 34.98 -50 36 C-50.33 35.34 -50.66 34.68 -51 34 C-51.78375 34.515625 -52.5675 35.03125 -53.375 35.5625 C-54.24125 36.036875 -55.1075 36.51125 -56 37 C-56.66 36.67 -57.32 36.34 -58 36 C-58.33 36.66 -58.66 37.32 -59 38 C-59.66 38 -60.32 38 -61 38 C-60.69078116 36.54096742 -60.37751201 35.08279278 -60.0625 33.625 C-59.80146484 32.40683594 -59.80146484 32.40683594 -59.53515625 31.1640625 C-59 29 -59 29 -58 27 C-60.64 26.67 -63.28 26.34 -66 26 C-65.34 24.68 -64.68 23.36 -64 22 C-64 22.99 -64 23.98 -64 25 C-62.02 25 -60.04 25 -58 25 C-57.67 23.68 -57.34 22.36 -57 21 C-56.67 21.66 -56.34 22.32 -56 23 C-54.02 23 -52.04 23 -50 23 C-49.34 21.35 -48.68 19.7 -48 18 C-47.67 18.99 -47.34 19.98 -47 21 C-47.33 21.66 -47.66 22.32 -48 23 C-45.36 23 -42.72 23 -40 23 C-39.67 22.01 -39.34 21.02 -39 20 C-39 20.66 -39 21.32 -39 22 C-36.36 22 -33.72 22 -31 22 C-30.34 19.03 -29.68 16.06 -29 13 C-30.65 13 -32.3 13 -34 13 C-34 12.67 -34 12.34 -34 12 C-32.94039062 11.82984375 -31.88078125 11.6596875 -30.7890625 11.484375 C-29.40087944 11.240505 -28.01286696 10.99566258 -26.625 10.75 C-25.92632812 10.64042969 -25.22765625 10.53085937 -24.5078125 10.41796875 C-20.37536522 9.73535655 -20.37536522 9.73535655 -17.5234375 6.890625 C-17.35070312 6.26671875 -17.17796875 5.6428125 -17 5 C-17 6.65 -17 8.3 -17 10 C-15.68 10.33 -14.36 10.66 -13 11 C-14.65 11 -16.3 11 -18 11 C-18.66 13.97 -19.32 16.94 -20 20 C-18.700625 19.87625 -17.40125 19.7525 -16.0625 19.625 C-14.96615234 19.52058594 -14.96615234 19.52058594 -13.84765625 19.4140625 C-13.23792969 19.27742188 -12.62820312 19.14078125 -12 19 C-11.67 18.34 -11.34 17.68 -11 17 C-11 17.66 -11 18.32 -11 19 C-7.04 18.505 -7.04 18.505 -3 18 C-2.67 15.36 -2.34 12.72 -2 10 C-3.32 10 -4.64 10 -6 10 C-6 9.34 -6 8.68 -6 8 C-4.35 8 -2.7 8 -1 8 C-0.67 5.36 -0.34 2.72 0 0 Z " fill="#CFB428" transform="translate(129,269)"/>
<path d="M0 0 C3.88182659 2.58788439 4.97793478 5.76278726 6.79296875 9.89453125 C7.31930656 11.07108528 7.31930656 11.07108528 7.85627747 12.27140808 C8.59595909 13.93136477 9.3311767 15.59331676 10.06225586 17.25708008 C11.1811232 19.79801833 12.31895819 22.32982474 13.45898438 24.86132812 C14.17564134 26.4760472 14.89117362 28.091266 15.60546875 29.70703125 C15.94603806 30.46240677 16.28660736 31.21778229 16.63749695 31.99604797 C18.29344264 35.80163895 19.45419505 38.75753602 19 43 C18.01 41.68 17.02 40.36 16 39 C15.67 40.65 15.34 42.3 15 44 C14.01 43.01 13.02 42.02 12 41 C11.34 41.66 10.68 42.32 10 43 C8 40 8 40 8 37 C7.34 37 6.68 37 6 37 C5.67 37.99 5.34 38.98 5 40 C4.34 40.99 3.68 41.98 3 43 C2.34 41.35 1.68 39.7 1 38 C0.01 38.99 -0.98 39.98 -2 41 C-2.33 39.68 -2.66 38.36 -3 37 C-3.66 38.98 -4.32 40.96 -5 43 C-6.32 42.67 -7.64 42.34 -9 42 C-9.33 39.69 -9.66 37.38 -10 35 C-8.68 35 -7.36 35 -6 35 C-5.97421875 34.36578125 -5.9484375 33.7315625 -5.921875 33.078125 C-5.25248987 22.06369694 -3.49625503 10.48876508 0 0 Z " fill="#F3D42F" transform="translate(147,256)"/>
<path d="M0 0 C-0.66 2.64 -1.32 5.28 -2 8 C4.1105424 8.11269443 9.95170514 7.89604368 16 7 C15.88485851 9.04224637 15.75742674 11.08380159 15.625 13.125 C15.55539063 14.26195312 15.48578125 15.39890625 15.4140625 16.5703125 C15.00556124 19.95393616 14.19032431 22.81612441 13 26 C10.36 26 7.72 26 5 26 C5 24.02 5 22.04 5 20 C4.34 22.31 3.68 24.62 3 27 C1.35 27 -0.3 27 -2 27 C-2 27.66 -2 28.32 -2 29 C-0.68 29 0.64 29 2 29 C1.67 31.64 1.34 34.28 1 37 C-0.89492006 37.33848652 -2.79098466 37.67056911 -4.6875 38 C-5.74324219 38.185625 -6.79898438 38.37125 -7.88671875 38.5625 C-10.64904062 38.95068074 -13.21742043 39.08259976 -16 39 C-15.34 36.03 -14.68 33.06 -14 30 C-12.35 30 -10.7 30 -9 30 C-9 29.34 -9 28.68 -9 28 C-8.01 28 -7.02 28 -6 28 C-5.87625 26.88625 -5.7525 25.7725 -5.625 24.625 C-5.01542458 19.69539009 -4.02526315 14.85755745 -3 10 C-4.98 10 -6.96 10 -9 10 C-9.33 11.98 -9.66 13.96 -10 16 C-10.33 16 -10.66 16 -11 16 C-11 14.35 -11 12.7 -11 11 C-13.3431213 11.25561323 -15.67843403 11.59270772 -18 12 C-18.33 12.66 -18.66 13.32 -19 14 C-19 13.34 -19 12.68 -19 12 C-19.66 11.67 -20.32 11.34 -21 11 C-19.68 10.01 -18.36 9.02 -17 8 C-17 8.66 -17 9.32 -17 10 C-14.69 10 -12.38 10 -10 10 C-9.67 8.02 -9.34 6.04 -9 4 C-8.34 4 -7.68 4 -7 4 C-7 3.01 -7 2.02 -7 1 C-2.25 0 -2.25 0 0 0 Z " fill="#C6AC26" transform="translate(125,250)"/>
<path d="M0 0 C2 0 2 0 4.16796875 2.10546875 C4.6067334 2.56228027 5.04549805 3.0190918 5.49755859 3.48974609 C8.27227888 6.27889457 11.31311078 8.77027824 14.3125 11.3125 C14.95767578 11.86228516 15.60285156 12.41207031 16.26757812 12.97851562 C17.84343442 14.32091173 19.42149121 15.66072394 21 17 C21.763125 16.195625 22.52625 15.39125 23.3125 14.5625 C26 12 26 12 29 11 C29.41511841 11.83809204 29.41511841 11.83809204 29.83862305 12.69311523 C31.11937568 15.27567762 32.4034201 17.85659046 33.6875 20.4375 C34.12255859 21.31599609 34.55761719 22.19449219 35.00585938 23.09960938 C37.55954406 28.22589493 40.21727135 33.25364245 43.09301758 38.20727539 C44 40 44 40 44 42 C40.97503419 40.64937713 38.9194306 39.14970763 36.6171875 36.77734375 C35.70259766 35.84631836 35.70259766 35.84631836 34.76953125 34.89648438 C34.14433594 34.25001953 33.51914062 33.60355469 32.875 32.9375 C31.62463926 31.6527607 30.37213484 30.37010319 29.1171875 29.08984375 C28.56659668 28.52128662 28.01600586 27.95272949 27.44873047 27.36694336 C26.02585988 25.89270095 26.02585988 25.89270095 24 25 C23.566875 25.8971875 23.566875 25.8971875 23.125 26.8125 C22 29 22 29 20 32 C19.34 32 18.68 32 18 32 C15.93693624 28.35448541 13.87465341 24.70852961 11.8125 21.0625 C11.23435547 20.04091797 10.65621094 19.01933594 10.06054688 17.96679688 C6.68168512 11.99174755 3.32196589 6.00688145 0 0 Z " fill="#FFD044" transform="translate(355,63)"/>
<path d="M0 0 C13.77777778 0 13.77777778 0 18 3 C20.34168764 6.51253146 20.49623677 7.86469356 20 12 C18.1875 14.875 18.1875 14.875 16 17 C15.01 17 14.02 17 13 17 C13.5053125 17.77085937 14.010625 18.54171875 14.53125 19.3359375 C15.1809375 20.33882813 15.830625 21.34171875 16.5 22.375 C17.1496875 23.37273437 17.799375 24.37046875 18.46875 25.3984375 C20 28 20 28 20 30 C17.6875 29.8125 17.6875 29.8125 15 29 C13.21699518 26.5312241 11.98536878 23.97073755 10.625 21.25 C8.95602088 18.40177357 8.95602088 18.40177357 4 18 C4 21.96 4 25.92 4 30 C2.68 30 1.36 30 0 30 C0 20.1 0 10.2 0 0 Z " fill="#141414" transform="translate(475,319)"/>
<path d="M0 0 C0.66 0.66 1.32 1.32 2 2 C2.804375 2.268125 3.60875 2.53625 4.4375 2.8125 C7.6536927 4.30293076 8.50075331 5.84369119 10 9 C10 9.66 10 10.32 10 11 C12.97 11.33 15.94 11.66 19 12 C19 12.66 19 13.32 19 14 C18.20335937 14.12117187 17.40671875 14.24234375 16.5859375 14.3671875 C10.18576002 15.31803545 10.18576002 15.31803545 4 17.125 C-0.87242373 18.54612359 -5.96328803 18.49422282 -11 18 C-11.99 17.34 -12.98 16.68 -14 16 C-16.04705225 15.40260055 -18.11233108 14.86590017 -20.1875 14.375 C-21.27417969 14.11460937 -22.36085938 13.85421875 -23.48046875 13.5859375 C-24.31191406 13.39257812 -25.14335938 13.19921875 -26 13 C-25.67 12.34 -25.34 11.68 -25 11 C-22.20050245 10.43380948 -19.40081735 10.10518492 -16.56640625 9.7578125 C-13.87966848 9.26844964 -13.87966848 9.26844964 -12.77734375 7.09765625 C-12.39255859 6.05931641 -12.39255859 6.05931641 -12 5 C-8.02804656 -0.33731243 -6.61392698 -1.5156916 0 0 Z " fill="#070601" transform="translate(95,176)"/>
<path d="M0 0 C7.30076921 0.68324759 14.38175109 1.96880777 21.5625 3.4375 C22.64724609 3.65470703 23.73199219 3.87191406 24.84960938 4.09570312 C42.90659581 7.74656923 42.90659581 7.74656923 46 12 C46 12.99 46 13.98 46 15 C47.423125 14.9690625 47.423125 14.9690625 48.875 14.9375 C52 15 52 15 54 16 C53.25 20.75 53.25 20.75 51 23 C50.01 23 49.02 23 48 23 C47.90912109 24.64935547 47.90912109 24.64935547 47.81640625 26.33203125 C47.60215916 30.16202326 47.37090557 33.99078804 47.13232422 37.81933594 C47.01729825 39.71492998 46.91566549 41.6113275 46.81640625 43.5078125 C46.72166016 44.95800781 46.72166016 44.95800781 46.625 46.4375 C46.57601562 47.28183594 46.52703125 48.12617188 46.4765625 48.99609375 C46 51 46 51 43 53 C42.97098599 48.41667994 42.95319652 43.83338349 42.9375 39.25 C42.92912109 37.94804687 42.92074219 36.64609375 42.91210938 35.3046875 C42.90888672 34.05429688 42.90566406 32.80390625 42.90234375 31.515625 C42.89710693 30.36352539 42.89187012 29.21142578 42.88647461 28.02441406 C43 25 43 25 43.63110352 22.84277344 C44.14691682 20.95247076 44.14691682 20.95247076 43.47436523 18.91601562 C41.26660556 16.04691513 38.81069743 15.50057718 35.41015625 14.34375 C34.42141762 14.00023499 34.42141762 14.00023499 33.41270447 13.64978027 C31.30044676 12.91929355 29.18195547 12.20929792 27.0625 11.5 C25.6707541 11.02350559 24.27947203 10.5456541 22.88867188 10.06640625 C20.18837787 9.13718003 17.48591183 8.21474396 14.78173828 7.296875 C9.82937947 5.59855802 4.90976473 3.81732243 0 2 C0 1.34 0 0.68 0 0 Z " fill="#0E0C02" transform="translate(113,151)"/>
<path d="M0 0 C-2.25013277 14.7687573 -4.73301782 29.42022314 -8 44 C-11.3 43.67 -14.6 43.34 -18 43 C-17.67 40.03 -17.34 37.06 -17 34 C-15.0509375 34.0309375 -15.0509375 34.0309375 -13.0625 34.0625 C-11.70834367 34.08399454 -10.35243917 34.07148199 -9 34 C-8.67 33.67 -8.34 33.34 -8 33 C-9.65 33 -11.3 33 -13 33 C-13 32.67 -13 32.34 -13 32 C-11.35 32 -9.7 32 -8 32 C-7.86722656 31.04738281 -7.73445313 30.09476562 -7.59765625 29.11328125 C-7.42105469 27.85902344 -7.24445313 26.60476563 -7.0625 25.3125 C-6.80146484 23.45044922 -6.80146484 23.45044922 -6.53515625 21.55078125 C-6.10177103 18.67525452 -5.60350718 15.84355187 -5 13 C-7.64 13.33 -10.28 13.66 -13 14 C-13.33 14.99 -13.66 15.98 -14 17 C-14 16.01 -14 15.02 -14 14 C-14.928125 14.185625 -15.85625 14.37125 -16.8125 14.5625 C-20 15 -20 15 -23 14 C-22.34 11.36 -21.68 8.72 -21 6 C-23.31 6.33 -25.62 6.66 -28 7 C-28.33 7.99 -28.66 8.98 -29 10 C-29 9.34 -29 8.68 -29 8 C-30.65 8 -32.3 8 -34 8 C-34 7.67 -34 7.34 -34 7 C-29.64099011 5.99896047 -25.28103897 5.00216113 -20.92016602 4.00927734 C-19.436827 3.67092358 -17.95375132 3.33141318 -16.47094727 2.99072266 C-14.33938708 2.50118456 -12.20691405 2.01581571 -10.07421875 1.53125 C-8.14968872 1.09135742 -8.14968872 1.09135742 -6.1862793 0.64257812 C-3 0 -3 0 0 0 Z " fill="#C3AA26" transform="translate(146,244)"/>
<path d="M0 0 C0.99 0 1.98 0 3 0 C3 13.2 3 26.4 3 40 C5.64 39.34 8.28 38.68 11 38 C14 37.875 14 37.875 16 38 C15.67 40.64 15.34 43.28 15 46 C15.99 46 16.98 46 18 46 C19 51 19 51 19.35351562 53.25537109 C20.15084574 56.64041078 21.46397749 59.56167249 22.90625 62.7265625 C23.19101196 63.35605804 23.47577393 63.98555359 23.76916504 64.63412476 C24.67455073 66.6333476 25.58693799 68.6292729 26.5 70.625 C27.4117468 72.6284373 28.32200939 74.63253447 29.23083496 76.63729858 C30.05410253 78.45168411 30.88144128 80.26422071 31.70898438 82.07666016 C33 85 33 85 34 88 C34.33 76.45 34.66 64.9 35 53 C35.33 53 35.66 53 36 53 C36 65.21 36 77.42 36 90 C35.34 90 34.68 90 34 90 C33.505 91.98 33.505 91.98 33 94 C32.5673584 92.84032715 32.5673584 92.84032715 32.12597656 91.65722656 C28.93699632 83.22470567 25.43527522 74.97864147 21.75 66.75 C21.2028819 65.51703493 20.65600594 64.28396238 20.109375 63.05078125 C18.10278982 57.67977062 18.10278982 57.67977062 15 53 C14.34 53.66 13.68 54.32 13 55 C13.01160156 54.39671875 13.02320313 53.7934375 13.03515625 53.171875 C13.04417969 52.37265625 13.05320313 51.5734375 13.0625 50.75 C13.07410156 49.96109375 13.08570313 49.1721875 13.09765625 48.359375 C13.0838463 46.00706224 13.0838463 46.00706224 12.43359375 43.828125 C12 42 12 42 13 40 C12.33097656 40.17015625 11.66195312 40.3403125 10.97265625 40.515625 C7.65089981 41.35386689 4.3256165 42.17720254 1 43 C0.29907227 43.17644043 -0.40185547 43.35288086 -1.12402344 43.53466797 C-3.35157747 44.09376928 -5.58171119 44.64146346 -7.8125 45.1875 C-8.86908813 45.45578613 -8.86908813 45.45578613 -9.94702148 45.72949219 C-14.41789343 46.81021185 -18.40023149 47.17437031 -23 47 C-20.62346092 44.62346092 -19.46764109 44.51824839 -16.2109375 43.9296875 C-15.36321777 43.77226074 -14.51549805 43.61483398 -13.64208984 43.45263672 C-12.5639502 43.2620166 -11.48581055 43.07139648 -10.375 42.875 C-6.95125 42.25625 -3.5275 41.6375 0 41 C0 27.47 0 13.94 0 0 Z " fill="#1B1805" transform="translate(133,204)"/>
<path d="M0 0 C3.33554863 0.62414659 3.33554863 0.62414659 6.4375 -0.4375 C10.09957344 -0.83555146 11.80207704 -0.90570639 14.8125 1.3125 C16.4375 3.5625 16.4375 3.5625 16.4375 7.5625 C12.94084409 7.80645274 11.00130744 7.92391503 8 6 C4.50854909 4.0413812 2.25589849 4.73892386 -1.5625 5.5625 C-1.8925 6.5525 -2.2225 7.5425 -2.5625 8.5625 C-4.625 9.25 -4.625 9.25 -6.5625 9.5625 C-6.5625 10.5525 -6.5625 11.5425 -6.5625 12.5625 C-10.07014693 14.52678228 -13.70944189 15.47201185 -17.5625 16.5625 C-17.8925 16.8925 -18.2225 17.2225 -18.5625 17.5625 C-21.25904854 17.63569621 -23.92941458 17.65492537 -26.625 17.625 C-27.38361328 17.62048828 -28.14222656 17.61597656 -28.92382812 17.61132812 C-30.80341871 17.5995068 -32.68296899 17.58157078 -34.5625 17.5625 C-34.25 15.1875 -34.25 15.1875 -33.5625 12.5625 C-30.33458445 10.4105563 -29.27849191 10.36163557 -25.5625 10.5625 C-24.9025 9.2425 -24.2425 7.9225 -23.5625 6.5625 C-18.9425 6.5625 -14.3225 6.5625 -9.5625 6.5625 C-8.9025 4.9125 -8.2425 3.2625 -7.5625 1.5625 C-4.2070576 -0.6744616 -3.75358923 -0.59983222 0 0 Z " fill="#100D03" transform="translate(84.5625,217.4375)"/>
<path d="M0 0 C11 0 11 0 13.625 1.875 C16.46671473 6.26674095 16.35626744 9.86084222 16 15 C14.89361307 18.9149076 13.97198454 20.02801546 11 23 C7.37 23 3.74 23 0 23 C0 15.41 0 7.82 0 0 Z " fill="#F7F7F7" transform="translate(548,139)"/>
<path d="M0 0 C4.82159389 2.36531021 7.70321747 5.14142156 10 10 C10.93519064 14.88543589 11.14189047 19.09279996 8.53125 23.453125 C5.26956292 27.29528181 2.93969755 29.69135706 -2.26953125 30.23828125 C-8.03025737 30.40641304 -11.57920613 30.09732115 -16 26 C-19.26619018 21.53620676 -19.62782255 17.08601323 -19.48828125 11.6953125 C-18.70033823 7.34586705 -16.41953292 4.69013713 -13 2 C-8.76274534 -0.54749926 -4.82994218 -0.67199196 0 0 Z M-13.125 6.375 C-15.92787256 10.55943031 -15.74173516 15.17065915 -15 20 C-13.74421104 23.0138935 -12.9285261 24.42463127 -10.171875 26.1328125 C-6.42130708 27.63034142 -2.84392389 26.98924512 1 26 C3.99452434 23.75410675 4.81623122 22.55130633 6 19 C6.53094699 14.35203781 6.64784823 11.03655716 4.125 7 C0.45270829 3.54372545 -2.60837463 3.52741262 -7.51171875 3.60546875 C-10.31180497 3.84837335 -10.31180497 3.84837335 -13.125 6.375 Z " fill="#151515" transform="translate(519,319)"/>
<path d="M0 0 C3.72568309 3.72568309 4.86319763 9.30125125 6.625 14.1875 C7.25535156 15.87456055 7.25535156 15.87456055 7.8984375 17.59570312 C8.29546875 18.69205078 8.6925 19.78839844 9.1015625 20.91796875 C9.46588379 21.91594482 9.83020508 22.9139209 10.20556641 23.94213867 C11 27 11 27 11 34 C17.93 34.495 17.93 34.495 25 35 C25.495 36.98 25.495 36.98 26 39 C25.02417969 38.97679687 24.04835937 38.95359375 23.04296875 38.9296875 C21.77066406 38.91164062 20.49835938 38.89359375 19.1875 38.875 C17.29064453 38.84019531 17.29064453 38.84019531 15.35546875 38.8046875 C11.8661976 38.72418082 11.8661976 38.72418082 9 41 C7.5063392 41.23266639 6.00421824 41.41255419 4.5 41.5625 C-2.46736096 42.6690257 -8.39516422 45.82553045 -14.625 48.98852539 C-15.42035156 49.3880542 -16.21570313 49.78758301 -17.03515625 50.19921875 C-17.7506665 50.56877686 -18.46617676 50.93833496 -19.20336914 51.3190918 C-20.09270142 51.65614136 -20.09270142 51.65614136 -21 52 C-21.66 51.67 -22.32 51.34 -23 51 C-21.7315625 50.22076172 -21.7315625 50.22076172 -20.4375 49.42578125 C-19.89158203 49.0901416 -19.34566406 48.75450195 -18.78320312 48.40869141 C-17.58945922 47.67485924 -16.39544645 46.94146429 -15.20117188 46.20849609 C-11.94815913 44.20943304 -8.71546244 42.18413268 -5.5 40.125 C-1.81939653 37.81590561 1.8857279 36.37142403 6 35 C5.78065796 33.94256592 5.78065796 33.94256592 5.55688477 32.86376953 C4.88684814 29.61857033 4.22463254 26.37182073 3.5625 23.125 C3.33240234 22.01640625 3.10230469 20.9078125 2.86523438 19.765625 C1.53006222 13.18651585 0.49916267 6.6965467 0 0 Z " fill="#8A781B" transform="translate(120,158)"/>
<path d="M0 0 C3.55260627 1.57679083 5.38561725 2.54420453 7.28125 6.01953125 C7.52875 7.13328125 7.52875 7.13328125 7.78125 8.26953125 C3.18651316 7.63137336 3.18651316 7.63137336 1.03125 5.70703125 C-2.51319258 3.44252627 -6.1342862 3.57126814 -10.21875 4.26953125 C-12.72035818 6.14573738 -13.83820652 7.50844428 -15.21875 10.26953125 C-15.56907356 15.61196558 -15.6748569 18.91739664 -12.21875 23.26953125 C-8.51748141 25.73704364 -6.59651468 25.57674281 -2.21875 25.26953125 C1.16156589 24.0818527 1.71341817 23.371279 3.78125 20.26953125 C5.10125 20.26953125 6.42125 20.26953125 7.78125 20.26953125 C6.51215537 24.18257304 5.31868024 26.12563413 1.78125 28.26953125 C-3.58825705 30.05936693 -8.41610333 30.15384849 -13.53125 27.64453125 C-17.04222157 24.54181219 -19.74899701 21.89631326 -20.6015625 17.12890625 C-20.89545377 11.36863745 -19.6515788 7.87674886 -16.21875 3.26953125 C-11.17590874 -1.20025987 -6.29359779 -2.07201195 0 0 Z " fill="#141414" transform="translate(438.21875,319.73046875)"/>
<path d="M0 0 C4.95 0 9.9 0 15 0 C15 0.66 15 1.32 15 2 C11.37 2 7.74 2 4 2 C4 5.3 4 8.6 4 12 C7.63 12 11.26 12 15 12 C15 13.32 15 14.64 15 16 C11.37 16 7.74 16 4 16 C4 19.3 4 22.6 4 26 C7.96 26 11.92 26 16 26 C16 26.99 16 27.98 16 29 C10.72 29 5.44 29 0 29 C0 19.43 0 9.86 0 0 Z " fill="#181818" transform="translate(398,320)"/>
<path d="M0 0 C4.95 0 9.9 0 15 0 C15 0.66 15 1.32 15 2 C11.37 2 7.74 2 4 2 C4 5.3 4 8.6 4 12 C7.63 12 11.26 12 15 12 C15 13.32 15 14.64 15 16 C11.37 16 7.74 16 4 16 C4 19.3 4 22.6 4 26 C7.96 26 11.92 26 16 26 C16 26.99 16 27.98 16 29 C10.72 29 5.44 29 0 29 C0 19.43 0 9.86 0 0 Z " fill="#181818" transform="translate(358,320)"/>
<path d="M0 0 C0 4.18678194 -2.02541079 7.11522797 -4 10.6875 C-4.3815625 11.38939453 -4.763125 12.09128906 -5.15625 12.81445312 C-6.09859522 14.54601247 -7.04857268 16.27341426 -8 18 C-6.02 18.66 -4.04 19.32 -2 20 C-5.36614165 23.45166975 -8.83320816 26.63248902 -12.5625 29.6875 C-13.49191406 30.45449219 -14.42132813 31.22148438 -15.37890625 32.01171875 C-17.55607593 33.66325283 -19.51229893 34.90541153 -22 36 C-21.06385433 34.27009975 -20.12602042 32.54111304 -19.1875 30.8125 C-18.66542969 29.84957031 -18.14335937 28.88664062 -17.60546875 27.89453125 C-16.12536134 25.22601643 -14.58662491 22.60625773 -13 20 C-15.475 19.01 -15.475 19.01 -18 18 C-16.89822514 14.69467543 -16.10316567 13.98696973 -13.5 11.8125 C-12.7884375 11.20921875 -12.076875 10.6059375 -11.34375 9.984375 C-10.5703125 9.32953125 -9.796875 8.6746875 -9 8 C-7.32937152 6.52530943 -5.66261168 5.04622309 -4 3.5625 C-3.236875 2.88316406 -2.47375 2.20382813 -1.6875 1.50390625 C-1.130625 1.00761719 -0.57375 0.51132813 0 0 Z " fill="#FFD047" transform="translate(503,74)"/>
<path d="M0 0 C0.33 0.99 0.66 1.98 1 3 C-0.87109375 5.69921875 -0.87109375 5.69921875 -3.4375 8.6875 C-4.28183594 9.68136719 -5.12617188 10.67523438 -5.99609375 11.69921875 C-6.98802734 12.83810547 -6.98802734 12.83810547 -8 14 C-4.04 14.33 -0.08 14.66 4 15 C3.25 20.75 3.25 20.75 1 23 C-1.74485593 23.14507695 -4.38480543 23.18652423 -7.125 23.125 C-7.87910156 23.11597656 -8.63320312 23.10695312 -9.41015625 23.09765625 C-11.27357254 23.0740687 -13.13682593 23.03819719 -15 23 C-15.92336811 20.24437987 -16.36864635 18.8218922 -16 16 C-13.77933266 12.74511211 -10.9624027 10.21044792 -8.0625 7.5625 C-7.29486328 6.83095703 -6.52722656 6.09941406 -5.73632812 5.34570312 C-3.84093301 3.54448913 -1.92950559 1.76450922 0 0 Z " fill="#443B0D" transform="translate(184,150)"/>
<path d="M0 0 C-2.91765 1.9451 -4.62537285 2.45276317 -8 3 C-8.309375 4.134375 -8.61875 5.26875 -8.9375 6.4375 C-10 10 -10 10 -11 11 C-12.66617115 11.04063832 -14.33388095 11.042721 -16 11 C-15.67 9.02 -15.34 7.04 -15 5 C-16.20628008 7.33214148 -17.1654738 9.49642139 -18 12 C-19.65 12 -21.3 12 -23 12 C-23 11.01 -23 10.02 -23 9 C-27.62 19.89 -32.24 30.78 -37 42 C-35.02 42.33 -33.04 42.66 -31 43 C-31.33 43.99 -31.66 44.98 -32 46 C-32 45.34 -32 44.68 -32 44 C-34.31 44 -36.62 44 -39 44 C-37.89804682 37.12281039 -34.99608186 30.70166076 -32.4375 24.26123047 C-31.81317354 22.67212454 -31.20242294 21.07761694 -30.60546875 19.47802734 C-25.63982018 6.19163614 -25.63982018 6.19163614 -21.68823242 3.32006836 C-19.39656759 2.54403108 -17.40551994 2.17780181 -15 2 C-14.12988281 1.75894531 -13.25976562 1.51789063 -12.36328125 1.26953125 C-8.16227426 0.33330684 -4.33626711 -0.22237267 0 0 Z " fill="#594E11" transform="translate(100,253)"/>
<path d="M0 0 C2.125 4.625 2.125 4.625 1 8 C1 7.34 1 6.68 1 6 C0.01 6.33 -0.98 6.66 -2 7 C-2.66 5.35 -3.32 3.7 -4 2 C-4.33 4.31 -4.66 6.62 -5 9 C-6.9375 8.625 -6.9375 8.625 -9 8 C-9.33 7.34 -9.66 6.68 -10 6 C-10.99 7.485 -10.99 7.485 -12 9 C-12.33 8.34 -12.66 7.68 -13 7 C-13.99 7.99 -14.98 8.98 -16 10 C-16.33 9.34 -16.66 8.68 -17 8 C-17.78375 8.515625 -18.5675 9.03125 -19.375 9.5625 C-20.24125 10.036875 -21.1075 10.51125 -22 11 C-22.66 10.67 -23.32 10.34 -24 10 C-24.33 10.66 -24.66 11.32 -25 12 C-25.66 12 -26.32 12 -27 12 C-26.69078116 10.54096742 -26.37751201 9.08279278 -26.0625 7.625 C-25.88847656 6.81289063 -25.71445313 6.00078125 -25.53515625 5.1640625 C-25 3 -25 3 -24 1 C-16.12367833 -0.27659036 -7.96115596 -0.14358798 0 0 Z " fill="#E5C82D" transform="translate(95,295)"/>
<path d="M0 0 C0.99 0 1.98 0 3 0 C3.33 13.86 3.66 27.72 4 42 C-16 47 -16 47 -23 47 C-20.62346092 44.62346092 -19.46764109 44.51824839 -16.2109375 43.9296875 C-15.36321777 43.77226074 -14.51549805 43.61483398 -13.64208984 43.45263672 C-12.5639502 43.2620166 -11.48581055 43.07139648 -10.375 42.875 C-6.95125 42.25625 -3.5275 41.6375 0 41 C0 27.47 0 13.94 0 0 Z " fill="#070601" transform="translate(133,204)"/>
<path d="M0 0 C5.75 -0.125 5.75 -0.125 8 1 C7.25 5.75 7.25 5.75 5 8 C4.01 8 3.02 8 2 8 C1.93941406 9.09957031 1.87882813 10.19914063 1.81640625 11.33203125 C1.60215916 15.16202326 1.37090557 18.99078804 1.13232422 22.81933594 C1.01729825 24.71492998 0.91566549 26.6113275 0.81640625 28.5078125 C0.75324219 29.47460938 0.69007813 30.44140625 0.625 31.4375 C0.57601562 32.28183594 0.52703125 33.12617188 0.4765625 33.99609375 C0 36 0 36 -3 38 C-3.02906612 33.43751341 -3.04682113 28.8750507 -3.0625 24.3125 C-3.07087891 23.01892578 -3.07925781 21.72535156 -3.08789062 20.39257812 C-3.09111328 19.14541016 -3.09433594 17.89824219 -3.09765625 16.61328125 C-3.10551147 14.89298706 -3.10551147 14.89298706 -3.11352539 13.13793945 C-3.00988225 10.27315381 -2.79293493 7.75353302 -2 5 C-1.34 4.67 -0.68 4.34 0 4 C0 2.68 0 1.36 0 0 Z " fill="#060501" transform="translate(159,166)"/>
<path d="M0 0 C2.60033977 2.60033977 2.45503346 4.11685837 2.8515625 7.7421875 C2.98046875 8.89074219 3.109375 10.03929687 3.2421875 11.22265625 C3.36851562 12.42792969 3.49484375 13.63320312 3.625 14.875 C3.7590625 16.07253906 3.893125 17.27007812 4.03125 18.50390625 C4.52835768 23.03367316 5 27.43943637 5 32 C2.36 32 -0.28 32 -3 32 C-2.53521257 21.21203917 -1.76619057 10.66573332 0 0 Z " fill="#EFEFEF" transform="translate(493,150)"/>
<path d="M0 0 C0.33 0 0.66 0 1 0 C1.02361932 8.94807972 1.04115866 17.89614802 1.05181217 26.84425259 C1.05693633 31.00335766 1.06383181 35.16244077 1.07543945 39.3215332 C1.13590868 61.56920579 0.83516529 83.76686436 0 106 C-0.33 106 -0.66 106 -1 106 C-1.14547214 100.89957657 -1.28771197 95.79907566 -1.42724609 90.69848633 C-1.4749093 88.97157494 -1.52338182 87.24468565 -1.57275391 85.51782227 C-1.90111771 74.00833573 -2.06716529 62.51418218 -2 51 C-1.34 51 -0.68 51 0 51 C0 34.17 0 17.34 0 0 Z " fill="#B49D23" transform="translate(170,189)"/>
<path d="M0 0 C2 3.75 2 3.75 2 6 C2.928125 5.7215625 2.928125 5.7215625 3.875 5.4375 C8.3323206 4.81347512 12.55486111 5.43896305 17 6 C17 6.33 17 6.66 17 7 C13.04 7 9.08 7 5 7 C5 11.95 5 16.9 5 22 C4.34 22 3.68 22 3 22 C3 38.83 3 55.66 3 73 C2.67 73 2.34 73 2 73 C2 51.22 2 29.44 2 7 C0.35 7 -1.3 7 -3 7 C-2.01 4.69 -1.02 2.38 0 0 Z " fill="#635613" transform="translate(167,167)"/>
<path d="M0 0 C-0.66 2.31 -1.32 4.62 -2 7 C-2.78375 6.649375 -3.5675 6.29875 -4.375 5.9375 C-5.24125 5.628125 -6.1075 5.31875 -7 5 C-7.99 5.495 -7.99 5.495 -9 6 C-9 5.34 -9 4.68 -9 4 C-9.66 4 -10.32 4 -11 4 C-11.33 5.32 -11.66 6.64 -12 8 C-12.33 7.34 -12.66 6.68 -13 6 C-13.33 6.66 -13.66 7.32 -14 8 C-14.66 8 -15.32 8 -16 8 C-16.33 7.34 -16.66 6.68 -17 6 C-20.00259517 5.66781808 -20.00259517 5.66781808 -21.6875 7.5 C-22.120625 7.995 -22.55375 8.49 -23 9 C-24 8 -24 8 -24.0625 4.4375 C-24.041875 3.303125 -24.02125 2.16875 -24 1 C-15.97497656 0.20318916 -8.06350113 -0.12867289 0 0 Z " fill="#E1C42C" transform="translate(129,292)"/>
<path d="M0 0 C-0.49706515 9.81114173 -1.73875875 19.21989928 -3.5625 28.875 C-3.79646484 30.14730469 -4.03042969 31.41960937 -4.27148438 32.73046875 C-4.84090905 35.82163125 -5.41714441 38.91134708 -6 42 C-7.32 42 -8.64 42 -10 42 C-8.43858798 31.7123988 -6.79140501 21.48173131 -4.6484375 11.296875 C-3.94139548 7.92043157 -3.94139548 7.92043157 -3.5390625 4.140625 C-3.36117187 3.10421875 -3.18328125 2.0678125 -3 1 C-1 0 -1 0 0 0 Z " fill="#131003" transform="translate(147,249)"/>
<path d="M0 0 C-0.33 2.64 -0.66 5.28 -1 8 C-2.19625 7.95875 -3.3925 7.9175 -4.625 7.875 C-8.44067609 7.86149318 -11.41016735 8.66424832 -15 10 C-15.99 10 -16.98 10 -18 10 C-17.67 7.36 -17.34 4.72 -17 2 C-15.10507994 1.66151348 -13.20901534 1.32943089 -11.3125 1 C-9.72888672 0.7215625 -9.72888672 0.7215625 -8.11328125 0.4375 C-5.35095938 0.04931926 -2.78257957 -0.08259976 0 0 Z " fill="#171404" transform="translate(141,257)"/>
<path d="M0 0 C1.60875 -0.04125 3.2175 -0.0825 4.875 -0.125 C5.77992188 -0.14820313 6.68484375 -0.17140625 7.6171875 -0.1953125 C10 0 10 0 12 2 C12.55713272 7.23704755 12.55713272 7.23704755 10.7734375 9.6796875 C8.47752375 11.38898011 7.14141288 11.31049621 4.3125 11.1875 C2.889375 11.125625 1.46625 11.06375 0 11 C0 7.37 0 3.74 0 0 Z " fill="#F4F4F4" transform="translate(479,323)"/>
<path d="M0 0 C0.99 0 1.98 0 3 0 C3 8.58 3 17.16 3 26 C6.63 26 10.26 26 14 26 C14 26.99 14 27.98 14 29 C9.38 29 4.76 29 0 29 C0 19.43 0 9.86 0 0 Z " fill="#020202" transform="translate(380,320)"/>
<path d="M0 0 C6.27 0 12.54 0 19 0 C19 0.66 19 1.32 19 2 C16.36 2 13.72 2 11 2 C11 10.91 11 19.82 11 29 C10.01 29 9.02 29 8 29 C8 20.09 8 11.18 8 2 C5.36 2 2.72 2 0 2 C0 1.34 0 0.68 0 0 Z " fill="#000000" transform="translate(451,320)"/>
<path d="M0 0 C1.4800841 0.11362262 2.95910074 0.24122908 4.4375 0.375 C5.26121094 0.44460937 6.08492188 0.51421875 6.93359375 0.5859375 C7.95646484 0.79089844 7.95646484 0.79089844 9 1 C9.33 1.66 9.66 2.32 10 3 C12.38649691 3.9216385 14.73869153 4.73160031 17.17578125 5.49609375 C17.89734909 5.73030533 18.61891693 5.96451691 19.36235046 6.20582581 C22.45600526 7.20975966 25.55519052 8.19611797 28.65405273 9.18383789 C30.9133457 9.90672578 33.16956306 10.63867635 35.42578125 11.37109375 C36.12383377 11.58994736 36.82188629 11.80880096 37.54109192 12.0342865 C41.18834675 13.21948293 44.10043347 14.46305317 47 17 C46.505 18.485 46.505 18.485 46 20 C45.01 20 44.02 20 43 20 C42.505 18.515 42.505 18.515 42 17 C39.10594341 15.60497943 39.10594341 15.60497943 35.5078125 14.44140625 C34.51695145 14.09576881 34.51695145 14.09576881 33.506073 13.7431488 C31.38270272 13.00515444 29.25417954 12.28354169 27.125 11.5625 C25.72878774 11.0811759 24.33294948 10.59876547 22.9375 10.11523438 C20.2258517 9.17651304 17.51245992 8.24311087 14.79785156 7.31298828 C9.84122084 5.60806124 4.91681922 3.81623412 0 2 C0 1.34 0 0.68 0 0 Z " fill="#695C14" transform="translate(113,151)"/>
<path d="M0 0 C-0.33 1.32 -0.66 2.64 -1 4 C-1.86044922 4.05994141 -1.86044922 4.05994141 -2.73828125 4.12109375 C-10.8269149 5.11529607 -17.44056654 8.34107481 -24.62426758 11.98803711 C-25.41986084 12.38772705 -26.2154541 12.78741699 -27.03515625 13.19921875 C-28.10842163 13.75355591 -28.10842163 13.75355591 -29.20336914 14.3190918 C-29.79625732 14.5437915 -30.38914551 14.76849121 -31 15 C-31.66 14.67 -32.32 14.34 -33 14 C-32.154375 13.48050781 -31.30875 12.96101562 -30.4375 12.42578125 C-29.89158203 12.0901416 -29.34566406 11.75450195 -28.78320312 11.40869141 C-27.58945922 10.67485924 -26.39544645 9.94146429 -25.20117188 9.20849609 C-21.94815913 7.20943304 -18.71546244 5.18413268 -15.5 3.125 C-9.87436232 -0.35138571 -6.70521245 -1.31474754 0 0 Z " fill="#201C06" transform="translate(130,195)"/>
<path d="M0 0 C-0.33 1.98 -0.66 3.96 -1 6 C-1.66 5.34 -2.32 4.68 -3 4 C-3.66 5.32 -4.32 6.64 -5 8 C-5.99 7.67 -6.98 7.34 -8 7 C-8.33 5.35 -8.66 3.7 -9 2 C-9.55985596 2.0407666 -10.11971191 2.0815332 -10.6965332 2.12353516 C-13.23454146 2.30198269 -15.77334878 2.46366765 -18.3125 2.625 C-19.63411133 2.72167969 -19.63411133 2.72167969 -20.98242188 2.8203125 C-21.82998047 2.871875 -22.67753906 2.9234375 -23.55078125 2.9765625 C-24.72120972 3.05511475 -24.72120972 3.05511475 -25.9152832 3.13525391 C-28 3 -28 3 -31 1 C-27.52229801 0.63037823 -24.04275442 0.28218973 -20.5625 -0.0625 C-19.58861328 -0.16626953 -18.61472656 -0.27003906 -17.61132812 -0.37695312 C-11.52494114 -0.9672716 -6.05221993 -0.89500253 0 0 Z " fill="#312B09" transform="translate(104,293)"/>
<path d="M0 0 C0.99 0 1.98 0 3 0 C2.59537935 3.93315637 2.18633011 7.86582448 1.77319336 11.7980957 C1.5645513 13.79288782 1.35940662 15.78804472 1.15429688 17.78320312 C1.02216797 19.03681641 0.89003906 20.29042969 0.75390625 21.58203125 C0.63345947 22.73936768 0.5130127 23.8967041 0.38891602 25.08911133 C0 28 0 28 -1 31 C0.65 31.33 2.3 31.66 4 32 C4 32.66 4 33.32 4 34 C2.35 33.67 0.7 33.34 -1 33 C-1 34.65 -1 36.3 -1 38 C-1.66 37.67 -2.32 37.34 -3 37 C-3.20752677 29.05345395 -2.39600308 21.32797758 -1.5 13.4375 C-1.35691406 12.14263672 -1.21382812 10.84777344 -1.06640625 9.51367188 C-0.71529163 6.3419365 -0.35971319 3.17076972 0 0 Z " fill="#655813" transform="translate(161,174)"/>
<path d="M0 0 C0.66 0.33 1.32 0.66 2 1 C1.67 2.98 1.34 4.96 1 7 C3.64 7.33 6.28 7.66 9 8 C8.67 8.99 8.34 9.98 8 11 C8 10.34 8 9.68 8 9 C5.36 9 2.72 9 0 9 C-0.33 11.97 -0.66 14.94 -1 18 C2.96 17.505 2.96 17.505 7 17 C7.66 17.99 8.32 18.98 9 20 C4.05 20.33 -0.9 20.66 -6 21 C-6 20.01 -6 19.02 -6 18 C-5.01 18 -4.02 18 -3 18 C-2.67 15.36 -2.34 12.72 -2 10 C-3.32 10 -4.64 10 -6 10 C-6 9.34 -6 8.68 -6 8 C-4.35 8 -2.7 8 -1 8 C-0.67 5.36 -0.34 2.72 0 0 Z " fill="#A38E1F" transform="translate(129,269)"/>
<path d="M0 0 C0.33 0 0.66 0 1 0 C1 12.21 1 24.42 1 37 C0.34 37 -0.32 37 -1 37 C-1.33 38.32 -1.66 39.64 -2 41 C-2.32613281 40.14277344 -2.65226563 39.28554688 -2.98828125 38.40234375 C-5.76225025 31.08210432 -5.76225025 31.08210432 -8.8125 23.875 C-10 21 -10 21 -10 18 C-9.34 18 -8.68 18 -8 18 C-5.69 23.61 -3.38 29.22 -1 35 C-0.67 23.45 -0.34 11.9 0 0 Z " fill="#1D1905" transform="translate(168,257)"/>
<path d="M0 0 C1.485 0.495 1.485 0.495 3 1 C1 4 1 4 -1.23901367 5.3137207 C-4.72961694 7.44561537 -7.32331995 10.07377262 -10.17578125 12.98046875 C-10.74580368 13.55332108 -11.31582611 14.1261734 -11.90312195 14.71638489 C-13.71102378 16.53542354 -15.51182119 18.36131378 -17.3125 20.1875 C-18.54185412 21.4268923 -19.77166708 22.66582965 -21.00195312 23.90429688 C-24.00663931 26.93095715 -27.00497624 29.96377921 -30 33 C-30.33 32.01 -30.66 31.02 -31 30 C-20.54571955 19.3727627 -20.54571955 19.3727627 -16.0625 15.5625 C-10.38233574 10.72428076 -5.2325417 5.31102982 0 0 Z " fill="#574C11" transform="translate(198,132)"/>
<path d="M0 0 C2.0625 0.4375 2.0625 0.4375 4 1 C3.01 1 2.02 1 1 1 C0.44892578 2.77697266 0.44892578 2.77697266 -0.11328125 4.58984375 C-2.38834029 11.41502088 -5.3239488 17.96971179 -8.1875 24.5625 C-8.75229278 25.87029608 -9.31674848 27.17823778 -9.88085938 28.48632812 C-11.25002748 31.65923901 -12.62373526 34.83015975 -14 38 C-12.02 38.33 -10.04 38.66 -8 39 C-8.33 39.99 -8.66 40.98 -9 42 C-9 41.34 -9 40.68 -9 40 C-11.31 40 -13.62 40 -16 40 C-15.30594027 35.4285489 -13.64249903 31.34972371 -11.875 27.109375 C-11.41456299 25.99154633 -11.41456299 25.99154633 -10.94482422 24.85113525 C-10.29805406 23.28365472 -9.64908437 21.71708014 -8.99804688 20.15136719 C-7.99848118 17.74634562 -7.00653531 15.33828633 -6.015625 12.9296875 C-5.38586193 11.40606588 -4.75566869 9.88262198 -4.125 8.359375 C-3.82706543 7.63651306 -3.52913086 6.91365112 -3.22216797 6.16888428 C-1.11586085 1.11586085 -1.11586085 1.11586085 0 0 Z " fill="#302A09" transform="translate(77,257)"/>
<path d="M0 0 C0.125 6.625 0.125 6.625 -1 10 C-3.64 10 -6.28 10 -9 10 C-8.67 7.03 -8.34 4.06 -8 1 C-2.25 0 -2.25 0 0 0 Z " fill="#090801" transform="translate(139,266)"/>
<path d="M0 0 C3.41887213 1.70943606 3.92326884 5.6865539 5.125 9.125 C5.40214844 9.87265625 5.67929688 10.6203125 5.96484375 11.390625 C7.64368581 16.13769565 8.30693513 19.96893288 8 25 C7.01 25.33 6.02 25.66 5 26 C4.15956003 22.4182952 3.32889101 18.83439357 2.5 15.25 C2.14228516 13.72632813 2.14228516 13.72632813 1.77734375 12.171875 C1.43896484 10.70234375 1.43896484 10.70234375 1.09375 9.203125 C0.88427734 8.30239258 0.67480469 7.40166016 0.45898438 6.47363281 C0 4 0 4 0 0 Z " fill="#100E03" transform="translate(123,167)"/>
<path d="M0 0 C-0.66 3.63 -1.32 7.26 -2 11 C-2.33 11 -2.66 11 -3 11 C-3 8.36 -3 5.72 -3 3 C-5.64 3.33 -8.28 3.66 -11 4 C-11.33 4.99 -11.66 5.98 -12 7 C-12.33 6.34 -12.66 5.68 -13 5 C-17.47883696 5.44703986 -17.47883696 5.44703986 -21 8 C-21 7.34 -21 6.68 -21 6 C-23.31 6.33 -25.62 6.66 -28 7 C-28.33 7.99 -28.66 8.98 -29 10 C-29 9.34 -29 8.68 -29 8 C-30.65 8 -32.3 8 -34 8 C-34 7.67 -34 7.34 -34 7 C-29.64099011 5.99896047 -25.28103897 5.00216113 -20.92016602 4.00927734 C-19.436827 3.67092358 -17.95375132 3.33141318 -16.47094727 2.99072266 C-14.33938708 2.50118456 -12.20691405 2.01581571 -10.07421875 1.53125 C-8.14968872 1.09135742 -8.14968872 1.09135742 -6.1862793 0.64257812 C-3 0 -3 0 0 0 Z " fill="#E4C62C" transform="translate(146,244)"/>
<path d="M0 0 C2.64 0 5.28 0 8 0 C8.125 5.75 8.125 5.75 7 8 C4.35139573 8.59355614 1.70802678 8.74209269 -1 9 C-0.67 6.03 -0.34 3.06 0 0 Z " fill="#050401" transform="translate(129,278)"/>
<path d="M0 0 C0.33 0.99 0.66 1.98 1 3 C0.67 3.66 0.34 4.32 0 5 C2.64 5 5.28 5 8 5 C8.33 4.01 8.66 3.02 9 2 C9 2.66 9 3.32 9 4 C12.63 4 16.26 4 20 4 C20 4.33 20 4.66 20 5 C15.54264686 5.50899922 11.08398826 6.00554676 6.625 6.5 C5.37332031 6.64308594 4.12164062 6.78617187 2.83203125 6.93359375 C-4.1456895 7.70077771 -10.97938414 8.22125081 -18 8 C-17.34 6.68 -16.68 5.36 -16 4 C-16 4.99 -16 5.98 -16 7 C-14.02 7 -12.04 7 -10 7 C-9.67 5.68 -9.34 4.36 -9 3 C-8.67 3.66 -8.34 4.32 -8 5 C-6.02 5 -4.04 5 -2 5 C-1.34 3.35 -0.68 1.7 0 0 Z " fill="#E0C32B" transform="translate(81,287)"/>
<path d="M0 0 C-0.66 2.97 -1.32 5.94 -2 9 C-4.64 9 -7.28 9 -10 9 C-9.34 6.36 -8.68 3.72 -8 1 C-5.23735711 0.40267181 -2.83967231 0 0 0 Z " fill="#080701" transform="translate(100,282)"/>
<path d="M0 0 C2.31 0 4.62 0 7 0 C6.125 7.875 6.125 7.875 5 9 C2.66702567 9.04092937 0.33294775 9.04241723 -2 9 C-1.34 6.03 -0.68 3.06 0 0 Z " fill="#100E03" transform="translate(102,281)"/>
<path d="M0 0 C2.31 0 4.62 0 7 0 C7.125 5.75 7.125 5.75 6 8 C3.35139573 8.59355614 0.70802678 8.74209269 -2 9 C-1.34 6.03 -0.68 3.06 0 0 Z " fill="#0E0C02" transform="translate(111,280)"/>
<path d="M0 0 C2.31 0 4.62 0 7 0 C6.34 2.97 5.68 5.94 5 9 C2.36 9 -0.28 9 -3 9 C-2.01 6.03 -1.02 3.06 0 0 Z " fill="#0A0902" transform="translate(96,272)"/>
<path d="M0 0 C1.134375 0.020625 2.26875 0.04125 3.4375 0.0625 C2.7775 3.0325 2.1175 6.0025 1.4375 9.0625 C-0.8725 9.3925 -3.1825 9.7225 -5.5625 10.0625 C-5.42200482 8.58281676 -5.27495174 7.10375484 -5.125 5.625 C-5.04378906 4.80128906 -4.96257812 3.97757812 -4.87890625 3.12890625 C-4.33318036 -0.43515544 -3.8167938 0.06696129 0 0 Z " fill="#060501" transform="translate(126.5625,267.9375)"/>
<path d="M0 0 C-0.3450018 5.34752797 -0.3450018 5.34752797 -1 8 C-3.78972582 10.30873861 -5.26799831 10 -9 10 C-8.34 7.03 -7.68 4.06 -7 1 C-2.25 0 -2.25 0 0 0 Z " fill="#0B0A02" transform="translate(112,270)"/>
<path d="M0 0 C-0.66 2.64 -1.32 5.28 -2 8 C-4.31 8.33 -6.62 8.66 -9 9 C-8.67 6.03 -8.34 3.06 -8 0 C-4 -1 -4 -1 0 0 Z " fill="#0A0902" transform="translate(121,270)"/>
<path d="M0 0 C5.61 0 11.22 0 17 0 C16.34 1.32 15.68 2.64 15 4 C9.72 4 4.44 4 -1 4 C-0.67 2.68 -0.34 1.36 0 0 Z " fill="#030200" transform="translate(170,169)"/>
<path d="M0 0 C2.31 0 4.62 0 7 0 C6.67 2.64 6.34 5.28 6 8 C3.36 8.33 0.72 8.66 -2 9 C-1.34 6.03 -0.68 3.06 0 0 Z " fill="#090801" transform="translate(120,279)"/>
<path d="M0 0 C-0.33 2.64 -0.66 5.28 -1 8 C-3.64 8.33 -6.28 8.66 -9 9 C-8.67 6.36 -8.34 3.72 -8 1 C-5.07175348 0.02391783 -3.04386724 -0.08226668 0 0 Z " fill="#0A0801" transform="translate(143,247)"/>
<path d="M0 0 C-0.33 2.64 -0.66 5.28 -1 8 C-3.64 8 -6.28 8 -9 8 C-8.67 5.69 -8.34 3.38 -8 1 C-5.07175348 0.02391783 -3.04386724 -0.08226668 0 0 Z " fill="#090801" transform="translate(141,257)"/>
<path d="M0 0 C1.25541557 3.76624671 0.37061958 5.37188934 -1 9 C-3.31 9 -5.62 9 -8 9 C-7.67 6.69 -7.34 4.38 -7 2 C-4.69 1.34 -2.38 0.68 0 0 Z " fill="#0D0B02" transform="translate(133,248)"/>
<path d="M0 0 C2.31 0 4.62 0 7 0 C6.67 2.64 6.34 5.28 6 8 C3.36 8 0.72 8 -2 8 C-1.34 5.36 -0.68 2.72 0 0 Z " fill="#0E0C02" transform="translate(83,284)"/>
<path d="M0 0 C-0.99 2.97 -1.98 5.94 -3 9 C-4.98 9 -6.96 9 -9 9 C-8.47731534 6.23723823 -7.89130413 3.6739124 -7 1 C-4 0 -4 0 0 0 Z " fill="#060501" transform="translate(94,273)"/>
<path d="M0 0 C-0.33 2.64 -0.66 5.28 -1 8 C-0.01 8.33 0.98 8.66 2 9 C1.01 9 0.02 9 -1 9 C-1.33 11.64 -1.66 14.28 -2 17 C-2.91609711 13.90817224 -3 11.20946451 -3 8 C-3.185625 7.278125 -3.37125 6.55625 -3.5625 5.8125 C-4 4 -4 4 -3 2 C-5.97 2.66 -8.94 3.32 -12 4 C-12.33 3.34 -12.66 2.68 -13 2 C-4.57142857 -0.28571429 -4.57142857 -0.28571429 0 0 Z " fill="#3B340B" transform="translate(149,242)"/>
<path d="M0 0 C0 0.66 0 1.32 0 2 C-3.94902814 3.71360021 -7.90005812 5.42247068 -11.85302734 7.12695312 C-13.19799169 7.70768151 -14.54239653 8.28970745 -15.88623047 8.87304688 C-17.81593154 9.71043745 -19.74758484 10.54316833 -21.6796875 11.375 C-22.84226074 11.87773437 -24.00483398 12.38046875 -25.20263672 12.8984375 C-28 14 -28 14 -30 14 C-30 13.34 -30 12.68 -30 12 C-29.319375 11.72027344 -28.63875 11.44054687 -27.9375 11.15234375 C-23.17427012 9.18244416 -18.4237728 7.19693963 -13.7109375 5.109375 C-12.63199219 4.63189819 -12.63199219 4.63189819 -11.53125 4.14477539 C-10.10534778 3.51174067 -8.68083794 2.87555932 -7.2578125 2.23608398 C-2.2190294 0 -2.2190294 0 0 0 Z " fill="#554A10" transform="translate(123,199)"/>
<path d="M0 0 C1.98 0 3.96 0 6 0 C5.125 6.875 5.125 6.875 4 8 C1.66702567 8.04092937 -0.66705225 8.04241723 -3 8 C-2.01 5.36 -1.02 2.72 0 0 Z " fill="#0E0C02" transform="translate(75,285)"/>
<path d="M0 0 C4.03553937 4.03553937 4.19746143 10.06509399 4.71484375 15.51171875 C5.23458176 20.04696689 6.13738093 24.5194058 7 29 C6.34 29.33 5.68 29.66 5 30 C4.15873388 25.93910105 3.32838113 21.87604526 2.5 17.8125 C2.26152344 16.66201172 2.02304688 15.51152344 1.77734375 14.32617188 C1.55175781 13.21435547 1.32617188 12.10253906 1.09375 10.95703125 C0.88427734 9.93585205 0.67480469 8.91467285 0.45898438 7.86254883 C0.02898209 5.18075268 -0.08705161 2.70948135 0 0 Z " fill="#766717" transform="translate(120,158)"/>
<path d="M0 0 C-0.66 2.64 -1.32 5.28 -2 8 C-4.31 8 -6.62 8 -9 8 C-8.1875 4.5625 -8.1875 4.5625 -7 1 C-4 0 -4 0 0 0 Z " fill="#121003" transform="translate(117,252)"/>
<path d="M0 0 C-0.875 6.875 -0.875 6.875 -2 8 C-3.99958364 8.04080783 -6.00045254 8.04254356 -8 8 C-7.67 5.69 -7.34 3.38 -7 1 C-2.25 0 -2.25 0 0 0 Z " fill="#0A0802" transform="translate(114,261)"/>
<path d="M0 0 C1.98 0 3.96 0 6 0 C5.47731534 2.76276177 4.89130413 5.3260876 4 8 C2.02 8 0.04 8 -2 8 C-1.125 2.25 -1.125 2.25 0 0 Z " fill="#030300" transform="translate(79,275)"/>
<path d="M0 0 C1.4540625 0.0309375 1.4540625 0.0309375 2.9375 0.0625 C2.6075 2.3725 2.2775 4.6825 1.9375 7.0625 C-0.3725 7.3925 -2.6825 7.7225 -5.0625 8.0625 C-4.046875 0.08258929 -4.046875 0.08258929 0 0 Z " fill="#050501" transform="translate(102.0625,262.9375)"/>
<path d="M0 0 C1.98 0 3.96 0 6 0 C6 2.31 6 4.62 6 7 C3.69 7.33 1.38 7.66 -1 8 C-0.67 5.36 -0.34 2.72 0 0 Z " fill="#0A0801" transform="translate(116,260)"/>
<path d="M0 0 C-0.66 2.64 -1.32 5.28 -2 8 C-3.98 8.33 -5.96 8.66 -8 9 C-7.67 6.36 -7.34 3.72 -7 1 C-2.25 0 -2.25 0 0 0 Z " fill="#0E0C02" transform="translate(125,250)"/>
<path d="M0 0 C6.46712188 1.16194152 12.09622349 3.1248748 18 6 C18 7.32 18 8.64 18 10 C17.01 10 16.02 10 15 10 C14.67 9.01 14.34 8.02 14 7 C11.4657993 5.95995231 9.04814798 5.10021603 6.4375 4.3125 C5.72658203 4.08755859 5.01566406 3.86261719 4.28320312 3.63085938 C2.52551181 3.07641983 0.76315902 2.53679811 -1 2 C-0.67 1.34 -0.34 0.68 0 0 Z " fill="#7F6E19" transform="translate(141,161)"/>
<path d="M0 0 C1.98 0 3.96 0 6 0 C5.34 2.31 4.68 4.62 4 7 C1.69 7.33 -0.62 7.66 -3 8 C-2.01 5.36 -1.02 2.72 0 0 Z " fill="#100E03" transform="translate(91,264)"/>
<path d="M0 0 C0.33 0.99 0.66 1.98 1 3 C2.9490625 2.814375 2.9490625 2.814375 4.9375 2.625 C5.66839844 2.55539062 6.39929688 2.48578125 7.15234375 2.4140625 C8.06693359 2.20910156 8.06693359 2.20910156 9 2 C9.33 1.34 9.66 0.68 10 0 C10 0.66 10 1.32 10 2 C12.31 2 14.62 2 17 2 C13.6592152 5.3407848 9.70488778 4.9821998 5.1328125 5.09765625 C3.79683965 5.09110736 2.46088291 5.07932798 1.125 5.0625 C0.09246094 5.05573242 0.09246094 5.05573242 -0.9609375 5.04882812 C-2.64066335 5.03716336 -4.32034375 5.01923271 -6 5 C-6 4.67 -6 4.34 -6 4 C-4.35 3.67 -2.7 3.34 -1 3 C-0.67 2.01 -0.34 1.02 0 0 Z " fill="#D6BA2A" transform="translate(108,286)"/>
<path d="M0 0 C1.65 0.33 3.3 0.66 5 1 C4.34 3.31 3.68 5.62 3 8 C5.97 8.495 5.97 8.495 9 9 C8.67 9.66 8.34 10.32 8 11 C5.69 10.67 3.38 10.34 1 10 C0.67 11.32 0.34 12.64 0 14 C-0.33 13.01 -0.66 12.02 -1 11 C-2.65 10.67 -4.3 10.34 -6 10 C-5.67 9.34 -5.34 8.68 -5 8 C-2.03 8.495 -2.03 8.495 1 9 C1.144375 8.236875 1.28875 7.47375 1.4375 6.6875 C2 4 2 4 3 1 C2.01 0.67 1.02 0.34 0 0 Z " fill="#9A861E" transform="translate(82,274)"/>
<path d="M0 0 C0.33 0 0.66 0 1 0 C0.57477229 7.8667126 -0.02462968 15.36190145 -2 23 C-3.32 22.67 -4.64 22.34 -6 22 C-5.34 22 -4.68 22 -4 22 C-3.34 18.7 -2.68 15.4 -2 12 C-3.65 12 -5.3 12 -7 12 C-7 11.67 -7 11.34 -7 11 C-5.35 11 -3.7 11 -2 11 C-1.34 7.37 -0.68 3.74 0 0 Z " fill="#EFD02E" transform="translate(140,265)"/>
<path d="M0 0 C2.625 -0.1875 2.625 -0.1875 5 0 C4.34 2.64 3.68 5.28 3 8 C1.02 8 -0.96 8 -3 8 C-2.45276317 4.62537285 -1.9451 2.91765 0 0 Z " fill="#0C0B02" transform="translate(68,286)"/>
<path d="M0 0 C-1.875 6.875 -1.875 6.875 -3 8 C-4.99958364 8.04080783 -7.00045254 8.04254356 -9 8 C-8.34 5.69 -7.68 3.38 -7 1 C-4.50935112 0.31292445 -2.62113708 0 0 0 Z " fill="#0F0D03" transform="translate(89,265)"/>
<path d="M0 0 C0.33 0.66 0.66 1.32 1 2 C0.01 2.33 -0.98 2.66 -2 3 C-2.33 4.65 -2.66 6.3 -3 8 C-3.66 7.67 -4.32 7.34 -5 7 C-4.67 5.68 -4.34 4.36 -4 3 C-4.9075 3.226875 -5.815 3.45375 -6.75 3.6875 C-10 4 -10 4 -12.375 2.5625 C-12.91125 2.046875 -13.4475 1.53125 -14 1 C-4.21321962 -1.57995736 -4.21321962 -1.57995736 0 0 Z " fill="#89771A" transform="translate(112,251)"/>
<path d="M0 0 C1.2065625 0.0309375 1.2065625 0.0309375 2.4375 0.0625 C0.5625 6.9375 0.5625 6.9375 -0.5625 8.0625 C-2.22867115 8.10313832 -3.89638095 8.105221 -5.5625 8.0625 C-3.38616071 0.08258929 -3.38616071 0.08258929 0 0 Z " fill="#070601" transform="translate(74.5625,275.9375)"/>
<path d="M0 0 C-0.66 2.31 -1.32 4.62 -2 7 C-3.98 7 -5.96 7 -8 7 C-7.625 4.0625 -7.625 4.0625 -7 1 C-4.53721199 -0.231394 -2.7204945 -0.07159196 0 0 Z " fill="#080701" transform="translate(108,254)"/>
<path d="M0 0 C2.31 0.33 4.62 0.66 7 1 C6.67 2.65 6.34 4.3 6 6 C4.1875 6.6875 4.1875 6.6875 2 7 C0.1875 5.8125 0.1875 5.8125 -1 4 C-0.6875 1.8125 -0.6875 1.8125 0 0 Z " fill="#E6C82D" transform="translate(203,277)"/>
<path d="M0 0 C0.66 0.33 1.32 0.66 2 1 C-2.62 5.62 -7.24 10.24 -12 15 C-12.33 14.01 -12.66 13.02 -13 12 C-11.21135158 10.18443212 -9.41928379 8.37248378 -7.625 6.5625 C-7.11710938 6.04623047 -6.60921875 5.52996094 -6.0859375 4.99804688 C-2.2265625 1.11328125 -2.2265625 1.11328125 0 0 Z " fill="#8C7A1B" transform="translate(180,150)"/>
<path d="M0 0 C-0.99 1.98 -1.98 3.96 -3 6 C-4.65 6 -6.3 6 -8 6 C-7.67 4.02 -7.34 2.04 -7 0 C-3.86650268 -1.04449911 -3.01031744 -0.93423645 0 0 Z " fill="#0C0B02" transform="translate(92,258)"/>
<path d="M0 0 C-0.66 2.31 -1.32 4.62 -2 7 C-3.98 7.33 -5.96 7.66 -8 8 C-7.8125 5.125 -7.8125 5.125 -7 2 C-4.52409924 0.60333803 -2.83735815 0 0 0 Z " fill="#090801" transform="translate(100,255)"/>
<path d="M0 0 C0.99 0 1.98 0 3 0 C2.67 3.96 2.34 7.92 2 12 C1.34 12 0.68 12 0 12 C0 14.31 0 16.62 0 19 C-0.33 19 -0.66 19 -1 19 C-1.10655578 12.55929529 -0.96205088 6.37358711 0 0 Z " fill="#9A861E" transform="translate(161,174)"/>
<path d="M0 0 C0.66 0.66 1.32 1.32 2 2 C0.35 5.63 -1.3 9.26 -3 13 C-0.03 13.495 -0.03 13.495 3 14 C2.67 14.99 2.34 15.98 2 17 C2 16.34 2 15.68 2 15 C-0.31 15 -2.62 15 -5 15 C-4.37321829 11.33827525 -3.35548154 8.1181005 -1.9375 4.6875 C-1.39416016 3.36298828 -1.39416016 3.36298828 -0.83984375 2.01171875 C-0.56269531 1.34785156 -0.28554687 0.68398438 0 0 Z " fill="#473E0E" transform="translate(66,282)"/>
<path d="M0 0 C1.32 0 2.64 0 4 0 C3.125 5.875 3.125 5.875 2 7 C0.33382885 7.04063832 -1.33388095 7.042721 -3 7 C-1.125 1.125 -1.125 1.125 0 0 Z " fill="#070601" transform="translate(76,267)"/>
<path d="M0 0 C0.87785156 -0.02578125 1.75570312 -0.0515625 2.66015625 -0.078125 C3.41167969 0.03015625 4.16320312 0.1384375 4.9375 0.25 C5.5975 1.24 6.2575 2.23 6.9375 3.25 C1.9875 3.58 -2.9625 3.91 -8.0625 4.25 C-8.0625 3.26 -8.0625 2.27 -8.0625 1.25 C-5.14081111 0.2761037 -3.05220526 0.05394177 0 0 Z " fill="#BDA525" transform="translate(131.0625,285.75)"/>
<path d="M0 0 C0.66 0.33 1.32 0.66 2 1 C1.67 3.31 1.34 5.62 1 8 C1.66 8.33 2.32 8.66 3 9 C2.01 9 1.02 9 0 9 C-0.33 11.31 -0.66 13.62 -1 16 C-1.33 16 -1.66 16 -2 16 C-2 14.02 -2 12.04 -2 10 C-2.66 10 -3.32 10 -4 10 C-4 9.34 -4 8.68 -4 8 C-3.01 8 -2.02 8 -1 8 C-0.67 5.36 -0.34 2.72 0 0 Z " fill="#C0A725" transform="translate(120,270)"/>
<path d="M0 0 C0.33 0.99 0.66 1.98 1 3 C0.67 3.66 0.34 4.32 0 5 C1.2065625 5.185625 1.2065625 5.185625 2.4375 5.375 C3.7059375 5.684375 3.7059375 5.684375 5 6 C5.33 6.66 5.66 7.32 6 8 C5.67 8.99 5.34 9.98 5 11 C4.34 11 3.68 11 3 11 C3.33 9.68 3.66 8.36 4 7 C0.75791433 7.35049575 -0.61527704 7.56221181 -2.8125 10.0625 C-3.204375 10.701875 -3.59625 11.34125 -4 12 C-3.33501617 7.61110675 -1.81242323 4.0188515 0 0 Z " fill="#B8A024" transform="translate(69,279)"/>
<path d="M0 0 C0.33 0.99 0.66 1.98 1 3 C0.67 3.66 0.34 4.32 0 5 C0.639375 5.103125 1.27875 5.20625 1.9375 5.3125 C2.618125 5.539375 3.29875 5.76625 4 6 C5 9 5 9 4 12 C3.34 12 2.68 12 2 12 C2.33 10.35 2.66 8.7 3 7 C0.11424181 7.39803561 -0.82189513 7.79009069 -2.75 10.0625 C-3.1625 10.701875 -3.575 11.34125 -4 12 C-3.33501617 7.61110675 -1.81242323 4.0188515 0 0 Z " fill="#B8A024" transform="translate(77,260)"/>
<path d="M0 0 C2.19050021 0.09017996 4.378466 0.24666208 6.5625 0.4375 C7.76003906 0.53933594 8.95757812 0.64117187 10.19140625 0.74609375 C11.11824219 0.82988281 12.04507813 0.91367188 13 1 C13 1.33 13 1.66 13 2 C9.04 2 5.08 2 1 2 C1 6.95 1 11.9 1 17 C0.67 17 0.34 17 0 17 C-0.19386492 14.35448944 -0.38038267 11.70882217 -0.5625 9.0625 C-0.61857422 8.30775391 -0.67464844 7.55300781 -0.73242188 6.77539062 C-0.86176157 4.85254042 -0.93516912 2.92610452 -1 1 C-0.67 0.67 -0.34 0.34 0 0 Z " fill="#473E0D" transform="translate(171,172)"/>
<path d="M0 0 C0.33 0.66 0.66 1.32 1 2 C3.31 2 5.62 2 8 2 C8.33 1.34 8.66 0.68 9 0 C8.67 2.64 8.34 5.28 8 8 C7.67 8 7.34 8 7 8 C7 6.35 7 4.7 7 3 C4.6568787 3.25561323 2.32156597 3.59270772 0 4 C-0.33 4.66 -0.66 5.32 -1 6 C-1 5.34 -1 4.68 -1 4 C-1.66 3.67 -2.32 3.34 -3 3 C-2.01 2.01 -1.02 1.02 0 0 Z " fill="#D4B829" transform="translate(107,258)"/>
<path d="M0 0 C0.33 0.66 0.66 1.32 1 2 C0.0625 4.625 0.0625 4.625 -1 7 C-2.65 7 -4.3 7 -6 7 C-5.25 4.0625 -5.25 4.0625 -4 1 C-1.875 0.125 -1.875 0.125 0 0 Z " fill="#0C0A02" transform="translate(83,258)"/>
<path d="M0 0 C2.8203125 0.4609375 2.8203125 0.4609375 6.125 1.375 C7.22070312 1.67148438 8.31640625 1.96796875 9.4453125 2.2734375 C10.28835937 2.51320312 11.13140625 2.75296875 12 3 C12 3.66 12 4.32 12 5 C7.03083364 4.48594831 2.70973649 3.76615118 -2 2 C-1.34 1.34 -0.68 0.68 0 0 Z " fill="#726316" transform="translate(134,197)"/>
<path d="M0 0 C0 0.33 0 0.66 0 1 C-5.45461169 2.38529821 -10.36718401 3.2396943 -16 3 C-12.01339411 -0.98660589 -5.26886217 -1.69963296 0 0 Z " fill="#463D0D" transform="translate(126,248)"/>
<path d="M0 0 C1.4540625 0.0309375 1.4540625 0.0309375 2.9375 0.0625 C2.2775 2.3725 1.6175 4.6825 0.9375 7.0625 C-0.0525 6.7325 -1.0425 6.4025 -2.0625 6.0625 C-2.0625 4.7425 -2.0625 3.4225 -2.0625 2.0625 C-2.7225 1.7325 -3.3825 1.4025 -4.0625 1.0625 C-3.0625 0.0625 -3.0625 0.0625 0 0 Z " fill="#F8D830" transform="translate(126.0625,291.9375)"/>
<path d="M0 0 C0.66 0.66 1.32 1.32 2 2 C1.01 4.97 0.02 7.94 -1 11 C-1.66 11 -2.32 11 -3 11 C-2.34 8.36 -1.68 5.72 -1 3 C-2.32 2.67 -3.64 2.34 -5 2 C-5 1.67 -5 1.34 -5 1 C-2.625 0.375 -2.625 0.375 0 0 Z " fill="#B69E23" transform="translate(104,269)"/>
<path d="M0 0 C0.99 0.495 0.99 0.495 2 1 C2 1.66 2 2.32 2 3 C3.65 3.33 5.3 3.66 7 4 C7 4.66 7 5.32 7 6 C5.35 5.67 3.7 5.34 2 5 C2 6.65 2 8.3 2 10 C1.34 9.67 0.68 9.34 0 9 C0 6.03 0 3.06 0 0 Z " fill="#5A4E11" transform="translate(158,202)"/>
<path d="M0 0 C2.31 0 4.62 0 7 0 C6.67 1.65 6.34 3.3 6 5 C5.34 4.34 4.68 3.68 4 3 C3.34 4.32 2.68 5.64 2 7 C0.5393715 4.35261084 0 3.10551666 0 0 Z " fill="#F3D42F" transform="translate(97,294)"/>
<path d="M0 0 C0 0.66 0 1.32 0 2 C-3.96 3.65 -7.92 5.3 -12 7 C-12.33 6.34 -12.66 5.68 -13 5 C-11.21046815 4.16209211 -9.41830305 3.32980604 -7.625 2.5 C-6.62726563 2.0359375 -5.62953125 1.571875 -4.6015625 1.09375 C-2 0 -2 0 0 0 Z " fill="#917E1C" transform="translate(123,199)"/>
<path d="M0 0 C0.99 0 1.98 0 3 0 C5.125 4.625 5.125 4.625 4 8 C4 7.34 4 6.68 4 6 C3.01 6.33 2.02 6.66 1 7 C0 6 0 6 -0.0625 2.9375 C-0.041875 1.968125 -0.02125 0.99875 0 0 Z " fill="#D9BC2A" transform="translate(92,295)"/>
<path d="M0 0 C2.97 0 5.94 0 9 0 C9 0.33 9 0.66 9 1 C7.35 1 5.7 1 4 1 C3.34 3.64 2.68 6.28 2 9 C1.34 9 0.68 9 0 9 C0.52268466 6.23723823 1.10869587 3.6739124 2 1 C1.34 0.67 0.68 0.34 0 0 Z " fill="#100E03" transform="translate(67,295)"/>
<path d="M0 0 C2.31 0.33 4.62 0.66 7 1 C6.67 2.32 6.34 3.64 6 5 C4.02 5 2.04 5 0 5 C0.66 4.67 1.32 4.34 2 4 C2 3.01 2 2.02 2 1 C1.34 0.67 0.68 0.34 0 0 Z " fill="#010100" transform="translate(123,194)"/>
<path d="M0 0 C3.2645028 3.2645028 3.93236055 7.41047299 4.125 11.9375 C4.08375 12.618125 4.0425 13.29875 4 14 C3.34 14 2.68 14 2 14 C-0.29612756 4.58997722 -0.29612756 4.58997722 0 0 Z " fill="#4C420E" transform="translate(120,158)"/>
<path d="M0 0 C-0.99 0.33 -1.98 0.66 -3 1 C-4.22969878 4.51190809 -4.22969878 4.51190809 -5 8 C-5.66 7.34 -6.32 6.68 -7 6 C-6.66666667 4.33333333 -6.33333333 2.66666667 -6 1 C-6.66 0.34 -7.32 -0.32 -8 -1 C-4.59745511 -2.2151946 -3.06748874 -1.86240388 0 0 Z " fill="#B9A124" transform="translate(102,263)"/>
<path d="M0 0 C0.33 0.99 0.66 1.98 1 3 C2.98 3 4.96 3 7 3 C5 5 5 5 2.3984375 5.1953125 C1.40070313 5.17210937 0.40296875 5.14890625 -0.625 5.125 C-2.12933594 5.09792969 -2.12933594 5.09792969 -3.6640625 5.0703125 C-4.43492188 5.04710937 -5.20578125 5.02390625 -6 5 C-6 4.67 -6 4.34 -6 4 C-4.35 3.67 -2.7 3.34 -1 3 C-0.67 2.01 -0.34 1.02 0 0 Z " fill="#F2D32F" transform="translate(108,286)"/>
<path d="M0 0 C1.32 0.33 2.64 0.66 4 1 C3.67 2.65 3.34 4.3 3 6 C2.01 6 1.02 6 0 6 C0 4.02 0 2.04 0 0 Z " fill="#0B0A02" transform="translate(148,251)"/>
<path d="M0 0 C0.99 0.33 1.98 0.66 3 1 C2.67 2.65 2.34 4.3 2 6 C1.01 6 0.02 6 -1 6 C-1.042721 4.33388095 -1.04063832 2.66617115 -1 1 C-0.67 0.67 -0.34 0.34 0 0 Z " fill="#D7BB2A" transform="translate(213,277)"/>
<path d="M0 0 C0.33 0 0.66 0 1 0 C1 1.98 1 3.96 1 6 C-0.65 6.66 -2.3 7.32 -4 8 C-3.67 5.69 -3.34 3.38 -3 1 C-2.34 1.33 -1.68 1.66 -1 2 C-0.67 1.34 -0.34 0.68 0 0 Z " fill="#463D0D" transform="translate(103,295)"/>
<path d="M0 0 C-0.66 0.66 -1.32 1.32 -2 2 C-2 2.33 -2 2.66 -2 3 C-4.31 2.67 -6.62 2.34 -9 2 C-8.67 1.34 -8.34 0.68 -8 0 C-4.71585695 -0.95067299 -3.30306592 -1.10102197 0 0 Z " fill="#181504" transform="translate(78,187)"/>
<path d="M0 0 C2.97 0.33 5.94 0.66 9 1 C8.01 1.495 8.01 1.495 7 2 C7 2.66 7 3.32 7 4 C4.69 3.34 2.38 2.68 0 2 C0 1.34 0 0.68 0 0 Z " fill="#4F450F" transform="translate(113,151)"/>
<path d="M0 0 C0.66 0 1.32 0 2 0 C1.67 3.63 1.34 7.26 1 11 C-1.26609984 6.46780033 -0.92735976 4.82227075 0 0 Z " fill="#D7BB2A" transform="translate(141,258)"/>
<path d="M0 0 C2 1 2 1 2.6328125 2.84765625 C2.79523438 3.57855469 2.95765625 4.30945313 3.125 5.0625 C3.29257813 5.79597656 3.46015625 6.52945313 3.6328125 7.28515625 C3.75398438 7.85105469 3.87515625 8.41695312 4 9 C3.01 9 2.02 9 1 9 C0.67 6.03 0.34 3.06 0 0 Z " fill="#201C06" transform="translate(123,167)"/>
<path d="M0 0 C-0.33 0.66 -0.66 1.32 -1 2 C-3.32156597 2.40729228 -5.6568787 2.74438677 -8 3 C-7.67 2.01 -7.34 1.02 -7 0 C-3.86650268 -1.04449911 -3.01031744 -0.93423645 0 0 Z " fill="#141414" transform="translate(53,313)"/>
<path d="M0 0 C0.66 0.33 1.32 0.66 2 1 C2.625 3.5625 2.625 3.5625 3 6 C2.01 6 1.02 6 0 6 C-2 3 -2 3 -2 1 C-1.34 0.67 -0.68 0.34 0 0 Z " fill="#EACC2D" transform="translate(121,292)"/>
<path d="M0 0 C0.33 0.66 0.66 1.32 1 2 C3.52733235 2.65555119 3.52733235 2.65555119 6 3 C6 3.33 6 3.66 6 4 C5.05125 4.12375 4.1025 4.2475 3.125 4.375 C-0.08667191 4.71687177 -0.08667191 4.71687177 -2 7 C-1.125 2.25 -1.125 2.25 0 0 Z " fill="#AA9421" transform="translate(72,272)"/>
<path d="M0 0 C-0.61875 0.28875 -1.2375 0.5775 -1.875 0.875 C-4.13325765 1.93720042 -4.13325765 1.93720042 -6 4 C-6 3.34 -6 2.68 -6 2 C-7.65 2 -9.3 2 -11 2 C-4.75 -1.125 -4.75 -1.125 0 0 Z " fill="#E4C72C" transform="translate(100,271)"/>
<path d="M0 0 C2 2 2 2 2.125 4.625 C2.08375 5.40875 2.0425 6.1925 2 7 C1.01 7 0.02 7 -1 7 C-0.67 4.69 -0.34 2.38 0 0 Z " fill="#564B11" transform="translate(157,213)"/>
</svg>
